<?xml version="1.0" encoding="us-ascii" standalone="no"?><svg xmlns="http://www.w3.org/2000/svg" xmlns:xlink="http://www.w3.org/1999/xlink" contentStyleType="text/css" height="886px" preserveAspectRatio="none" style="width:1571px;height:886px;background:#FFFFFF;" version="1.1" viewBox="0 0 1571 886" width="1571px" zoomAndPan="magnify"><defs><filter height="1" id="b11oqwxk1p9el00" width="1" x="0" y="0"><feFlood flood-color="#ADD8E6" result="flood"/><feComposite in="SourceGraphic" in2="flood" operator="over"/></filter><filter height="1" id="b11oqwxk1p9el01" width="1" x="0" y="0"><feFlood flood-color="#FFFFFF" result="flood"/><feComposite in="SourceGraphic" in2="flood" operator="over"/></filter></defs><g><text fill="#000000" font-family="sans-serif" font-size="14" font-weight="bold" lengthAdjust="spacing" textLength="305" x="626" y="23.5352">High level functional components per role</text><rect fill="none" height="46.9766" id="_legend" rx="7.5" ry="7.5" style="stroke:#000000;stroke-width:1.0;" width="284" x="12" y="49.4883"/><text fill="#000000" font-family="sans-serif" font-size="14" lengthAdjust="spacing" textLength="50" x="17" y="68.0234">Legend</text><text fill="#ADD8E6" filter="url(#b11oqwxk1p9el00)" font-family="sans-serif" font-size="14" lengthAdjust="spacing" textLength="18" x="17" y="86.5117">##</text><text fill="#000000" font-family="sans-serif" font-size="14" lengthAdjust="spacing" textLength="214" x="39" y="86.5117">ARF required flows are listed in</text><text fill="#ADD8E6" filter="url(#b11oqwxk1p9el01)" font-family="sans-serif" font-size="14" lengthAdjust="spacing" textLength="30" x="257" y="86.5117">blue</text><text fill="#000000" font-family="sans-serif" font-size="14" lengthAdjust="spacing" textLength="4" x="287" y="86.5117">&#160;</text><line style="stroke:#000000;stroke-width:1.0;" x1="17" x2="291" y1="72.9766" y2="72.9766"/><line style="stroke:#000000;stroke-width:1.0;" x1="17" x2="291" y1="89.4648" y2="89.4648"/><line style="stroke:#000000;stroke-width:1.0;" x1="17" x2="17" y1="72.9766" y2="89.4648"/><line style="stroke:#000000;stroke-width:1.0;" x1="35" x2="35" y1="72.9766" y2="89.4648"/><line style="stroke:#000000;stroke-width:1.0;" x1="291" x2="291" y1="72.9766" y2="89.4648"/><!--cluster (Q)EAA Provider - Issuer--><g id="cluster_(Q)EAA Provider - Issuer"><path d="M8.5,222.5048 L187.5,222.5048 A3.75,3.75 0 0 1 190,225.0048 L197,244.9931 L541.5,244.9931 A2.5,2.5 0 0 1 544,247.4931 L544,834.9548 A2.5,2.5 0 0 1 541.5,837.4548 L8.5,837.4548 A2.5,2.5 0 0 1 6,834.9548 L6,225.0048 A2.5,2.5 0 0 1 8.5,222.5048 " fill="none" style="stroke:#000000;stroke-width:1.5;"/><line style="stroke:#000000;stroke-width:1.5;" x1="6" x2="197" y1="244.9931" y2="244.9931"/><text fill="#000000" font-family="sans-serif" font-size="14" font-weight="bold" lengthAdjust="spacing" textLength="178" x="10" y="238.04">(Q)EAA Provider - Issuer</text></g><!--cluster Issuance API interfaces--><g id="cluster_Issuance API interfaces"><polygon fill="none" points="269,511.9648,279,501.9648,512,501.9648,512,795.4548,502,805.4548,269,805.4548,269,511.9648" style="stroke:#181818;stroke-width:1.0;"/><line style="stroke:#181818;stroke-width:1.0;" x1="502" x2="512" y1="511.9648" y2="501.9648"/><line style="stroke:#181818;stroke-width:1.0;" x1="269" x2="502" y1="511.9648" y2="511.9648"/><line style="stroke:#181818;stroke-width:1.0;" x1="502" x2="502" y1="511.9648" y2="805.4548"/><text fill="#000000" font-family="sans-serif" font-size="14" font-weight="bold" lengthAdjust="spacing" textLength="167" x="303" y="528.5">Issuance API interfaces</text></g><!--cluster Wallet/Holder--><g id="cluster_Wallet/Holder"><path d="M570.5,230.7448 L672.5,230.7448 A3.75,3.75 0 0 1 675,233.2448 L682,253.2331 L1019.5,253.2331 A2.5,2.5 0 0 1 1022,255.7331 L1022,673.9548 A2.5,2.5 0 0 1 1019.5,676.4548 L570.5,676.4548 A2.5,2.5 0 0 1 568,673.9548 L568,233.2448 A2.5,2.5 0 0 1 570.5,230.7448 " fill="none" style="stroke:#000000;stroke-width:1.5;"/><line style="stroke:#000000;stroke-width:1.5;" x1="568" x2="682" y1="253.2331" y2="253.2331"/><text fill="#000000" font-family="sans-serif" font-size="14" font-weight="bold" lengthAdjust="spacing" textLength="101" x="572" y="246.28">Wallet/Holder</text></g><!--cluster Wallet transport--><g id="cluster_Wallet transport"><polygon fill="none" points="612,511.9648,622,501.9648,990,501.9648,990,634.4548,980,644.4548,612,644.4548,612,511.9648" style="stroke:#181818;stroke-width:1.0;"/><line style="stroke:#181818;stroke-width:1.0;" x1="980" x2="990" y1="511.9648" y2="501.9648"/><line style="stroke:#181818;stroke-width:1.0;" x1="612" x2="980" y1="511.9648" y2="511.9648"/><line style="stroke:#181818;stroke-width:1.0;" x1="980" x2="980" y1="511.9648" y2="644.4548"/><text fill="#000000" font-family="sans-serif" font-size="14" font-weight="bold" lengthAdjust="spacing" textLength="117" x="738.5" y="528.5">Wallet transport</text></g><!--cluster Relying Party--><g id="cluster_Relying Party"><path d="M1071.5,222.5048 L1168.5,222.5048 A3.75,3.75 0 0 1 1171,225.0048 L1178,244.9931 L1561.5,244.9931 A2.5,2.5 0 0 1 1564,247.4931 L1564,834.9548 A2.5,2.5 0 0 1 1561.5,837.4548 L1071.5,837.4548 A2.5,2.5 0 0 1 1069,834.9548 L1069,225.0048 A2.5,2.5 0 0 1 1071.5,222.5048 " fill="none" style="stroke:#000000;stroke-width:1.5;"/><line style="stroke:#000000;stroke-width:1.5;" x1="1069" x2="1178" y1="244.9931" y2="244.9931"/><text fill="#000000" font-family="sans-serif" font-size="14" font-weight="bold" lengthAdjust="spacing" textLength="96" x="1073" y="238.04">Relying Party</text></g><!--cluster Relying Party API interfaces--><g id="cluster_Relying Party API interfaces"><polygon fill="none" points="1101,511.9648,1111,501.9648,1378,501.9648,1378,795.4548,1368,805.4548,1101,805.4548,1101,511.9648" style="stroke:#181818;stroke-width:1.0;"/><line style="stroke:#181818;stroke-width:1.0;" x1="1368" x2="1378" y1="511.9648" y2="501.9648"/><line style="stroke:#181818;stroke-width:1.0;" x1="1101" x2="1368" y1="511.9648" y2="511.9648"/><line style="stroke:#181818;stroke-width:1.0;" x1="1368" x2="1368" y1="511.9648" y2="805.4548"/><text fill="#000000" font-family="sans-serif" font-size="14" font-weight="bold" lengthAdjust="spacing" textLength="201" x="1135" y="528.5">Relying Party API interfaces</text></g><!--entity (Q)EAA Provider Issuer--><g id="elem_(Q)EAA Provider Issuer"><rect fill="#F1F1F1" height="46.4883" rx="2.5" ry="2.5" style="stroke:#181818;stroke-width:0.5;" width="150" x="22" y="284.7448"/><rect fill="#F1F1F1" height="10" style="stroke:#181818;stroke-width:0.5;" width="15" x="152" y="289.7448"/><rect fill="#F1F1F1" height="2" style="stroke:#181818;stroke-width:0.5;" width="4" x="150" y="291.7448"/><rect fill="#F1F1F1" height="2" style="stroke:#181818;stroke-width:0.5;" width="4" x="150" y="295.7448"/><text fill="#000000" font-family="sans-serif" font-size="14" lengthAdjust="spacing" textLength="110" x="37" y="318.28">(Q)EAA Provider</text></g><!--entity KMS & DID mgmt Issuer--><g id="elem_KMS &amp; DID mgmt Issuer"><rect fill="#F1F1F1" height="46.4883" rx="2.5" ry="2.5" style="stroke:#181818;stroke-width:0.5;" width="155" x="323.5" y="400.4748"/><rect fill="#F1F1F1" height="10" style="stroke:#181818;stroke-width:0.5;" width="15" x="458.5" y="405.4748"/><rect fill="#F1F1F1" height="2" style="stroke:#181818;stroke-width:0.5;" width="4" x="456.5" y="407.4748"/><rect fill="#F1F1F1" height="2" style="stroke:#181818;stroke-width:0.5;" width="4" x="456.5" y="411.4748"/><text fill="#000000" font-family="sans-serif" font-size="14" lengthAdjust="spacing" textLength="115" x="338.5" y="434.01">KMS &amp; DID mgmt</text></g><!--entity Trust mgmt Issuer--><g id="elem_Trust mgmt Issuer"><rect fill="#F1F1F1" height="46.4883" rx="2.5" ry="2.5" style="stroke:#181818;stroke-width:0.5;" width="120" x="22" y="400.4748"/><rect fill="#F1F1F1" height="10" style="stroke:#181818;stroke-width:0.5;" width="15" x="122" y="405.4748"/><rect fill="#F1F1F1" height="2" style="stroke:#181818;stroke-width:0.5;" width="4" x="120" y="407.4748"/><rect fill="#F1F1F1" height="2" style="stroke:#181818;stroke-width:0.5;" width="4" x="120" y="411.4748"/><text fill="#000000" font-family="sans-serif" font-size="14" lengthAdjust="spacing" textLength="80" x="37" y="434.01">Trust mgmt</text></g><!--entity Auth Issuer--><g id="elem_Auth Issuer"><rect fill="#F1F1F1" height="46.4883" rx="2.5" ry="2.5" style="stroke:#181818;stroke-width:0.5;" width="73" x="177.5" y="400.4748"/><rect fill="#F1F1F1" height="10" style="stroke:#181818;stroke-width:0.5;" width="15" x="230.5" y="405.4748"/><rect fill="#F1F1F1" height="2" style="stroke:#181818;stroke-width:0.5;" width="4" x="228.5" y="407.4748"/><rect fill="#F1F1F1" height="2" style="stroke:#181818;stroke-width:0.5;" width="4" x="228.5" y="411.4748"/><text fill="#000000" font-family="sans-serif" font-size="14" lengthAdjust="spacing" textLength="33" x="192.5" y="434.01">Auth</text></g><!--entity Web app Issuer--><g id="elem_Web app Issuer"><rect fill="#F1F1F1" height="62.9766" rx="2.5" ry="2.5" style="stroke:#181818;stroke-width:0.5;" width="150" x="260" y="276.5048"/><rect fill="#F1F1F1" height="10" style="stroke:#181818;stroke-width:0.5;" width="15" x="390" y="281.5048"/><rect fill="#F1F1F1" height="2" style="stroke:#181818;stroke-width:0.5;" width="4" x="388" y="283.5048"/><rect fill="#F1F1F1" height="2" style="stroke:#181818;stroke-width:0.5;" width="4" x="388" y="287.5048"/><text fill="#000000" font-family="sans-serif" font-size="14" lengthAdjust="spacing" textLength="70" x="275" y="310.04">Web app /</text><text fill="#000000" font-family="sans-serif" font-size="14" lengthAdjust="spacing" textLength="110" x="275" y="326.5283">Resource Server</text></g><!--entity Issuance API--><g id="elem_Issuance API"><ellipse cx="216" cy="307.9948" fill="#F1F1F1" rx="8" ry="8" style="stroke:#181818;stroke-width:0.5;"/><text fill="#000000" font-family="sans-serif" font-size="14" lengthAdjust="spacing" textLength="85" x="173.5" y="338.53">Issuance API</text></g><!--entity Issuer DB--><g id="elem_Issuer DB"><path d="M444.5,295.2448 C444.5,285.2448 486,285.2448 486,285.2448 C486,285.2448 527.5,285.2448 527.5,295.2448 L527.5,320.7331 C527.5,330.7331 486,330.7331 486,330.7331 C486,330.7331 444.5,330.7331 444.5,320.7331 L444.5,295.2448 " fill="#F1F1F1" style="stroke:#181818;stroke-width:0.5;"/><path d="M444.5,295.2448 C444.5,305.2448 486,305.2448 486,305.2448 C486,305.2448 527.5,305.2448 527.5,295.2448 " fill="none" style="stroke:#181818;stroke-width:0.5;"/><text fill="#000000" font-family="sans-serif" font-size="14" lengthAdjust="spacing" textLength="63" x="454.5" y="322.78">Issuer DB</text></g><!--entity OID4VCI Issuer--><g id="elem_OID4VCI Issuer"><rect fill="#ADD8E6" height="46.4883" rx="2.5" ry="2.5" style="stroke:#181818;stroke-width:0.5;" width="97" x="306.5" y="573.9648"/><rect fill="#ADD8E6" height="10" style="stroke:#181818;stroke-width:0.5;" width="15" x="383.5" y="578.9648"/><rect fill="#ADD8E6" height="2" style="stroke:#181818;stroke-width:0.5;" width="4" x="381.5" y="580.9648"/><rect fill="#ADD8E6" height="2" style="stroke:#181818;stroke-width:0.5;" width="4" x="381.5" y="584.9648"/><text fill="#000000" font-family="sans-serif" font-size="14" lengthAdjust="spacing" textLength="57" x="321.5" y="607.5">OID4VCI</text></g><!--entity OID4VCI MGMT API--><g id="elem_OID4VCI MGMT API"><ellipse cx="447" cy="597.2148" fill="#F1F1F1" rx="8" ry="8" style="stroke:#181818;stroke-width:0.5;"/><text fill="#000000" font-family="sans-serif" font-size="14" lengthAdjust="spacing" textLength="130" x="382" y="627.75">OID4VCI MGMT API</text></g><!--entity OID4VCI Wallet API--><g id="elem_OID4VCI Wallet API"><ellipse cx="381" cy="752.4548" fill="#F1F1F1" rx="8" ry="8" style="stroke:#181818;stroke-width:0.5;"/><text fill="#000000" font-family="sans-serif" font-size="14" lengthAdjust="spacing" textLength="128" x="317" y="782.99">OID4VCI Wallet API</text></g><!--entity (Q)EAA mgmt Holder--><g id="elem_(Q)EAA mgmt Holder"><rect fill="#F1F1F1" height="46.4883" rx="2.5" ry="2.5" style="stroke:#181818;stroke-width:0.5;" width="133" x="614.5" y="284.7448"/><rect fill="#F1F1F1" height="10" style="stroke:#181818;stroke-width:0.5;" width="15" x="727.5" y="289.7448"/><rect fill="#F1F1F1" height="2" style="stroke:#181818;stroke-width:0.5;" width="4" x="725.5" y="291.7448"/><rect fill="#F1F1F1" height="2" style="stroke:#181818;stroke-width:0.5;" width="4" x="725.5" y="295.7448"/><text fill="#000000" font-family="sans-serif" font-size="14" lengthAdjust="spacing" textLength="93" x="629.5" y="318.28">(Q)EAA mgmt</text></g><!--entity KMS & DID mgmt Holder--><g id="elem_KMS &amp; DID mgmt Holder"><rect fill="#F1F1F1" height="46.4883" rx="2.5" ry="2.5" style="stroke:#181818;stroke-width:0.5;" width="155" x="813.5" y="400.4748"/><rect fill="#F1F1F1" height="10" style="stroke:#181818;stroke-width:0.5;" width="15" x="948.5" y="405.4748"/><rect fill="#F1F1F1" height="2" style="stroke:#181818;stroke-width:0.5;" width="4" x="946.5" y="407.4748"/><rect fill="#F1F1F1" height="2" style="stroke:#181818;stroke-width:0.5;" width="4" x="946.5" y="411.4748"/><text fill="#000000" font-family="sans-serif" font-size="14" lengthAdjust="spacing" textLength="115" x="828.5" y="434.01">KMS &amp; DID mgmt</text></g><!--entity Trust mgmt Holder--><g id="elem_Trust mgmt Holder"><rect fill="#F1F1F1" height="46.4883" rx="2.5" ry="2.5" style="stroke:#181818;stroke-width:0.5;" width="120" x="584" y="400.4748"/><rect fill="#F1F1F1" height="10" style="stroke:#181818;stroke-width:0.5;" width="15" x="684" y="405.4748"/><rect fill="#F1F1F1" height="2" style="stroke:#181818;stroke-width:0.5;" width="4" x="682" y="407.4748"/><rect fill="#F1F1F1" height="2" style="stroke:#181818;stroke-width:0.5;" width="4" x="682" y="411.4748"/><text fill="#000000" font-family="sans-serif" font-size="14" lengthAdjust="spacing" textLength="80" x="599" y="434.01">Trust mgmt</text></g><!--entity Q(E)AA api--><g id="elem_Q(E)AA api"><ellipse cx="813" cy="307.9948" fill="#F1F1F1" rx="8" ry="8" style="stroke:#181818;stroke-width:0.5;"/><text fill="#000000" font-family="sans-serif" font-size="14" lengthAdjust="spacing" textLength="74" x="776" y="338.53">Q(E)AA api</text></g><!--entity Wallet DB--><g id="elem_Wallet DB"><path d="M879.5,295.2448 C879.5,285.2448 921,285.2448 921,285.2448 C921,285.2448 962.5,285.2448 962.5,295.2448 L962.5,320.7331 C962.5,330.7331 921,330.7331 921,330.7331 C921,330.7331 879.5,330.7331 879.5,320.7331 L879.5,295.2448 " fill="#F1F1F1" style="stroke:#181818;stroke-width:0.5;"/><path d="M879.5,295.2448 C879.5,305.2448 921,305.2448 921,305.2448 C921,305.2448 962.5,305.2448 962.5,295.2448 " fill="none" style="stroke:#181818;stroke-width:0.5;"/><text fill="#000000" font-family="sans-serif" font-size="14" lengthAdjust="spacing" textLength="63" x="889.5" y="322.78">Wallet DB</text></g><!--entity OID4VP Client--><g id="elem_OID4VP Client"><rect fill="#ADD8E6" height="46.4883" rx="2.5" ry="2.5" style="stroke:#181818;stroke-width:0.5;" width="135" x="811.5" y="573.9648"/><rect fill="#ADD8E6" height="10" style="stroke:#181818;stroke-width:0.5;" width="15" x="926.5" y="578.9648"/><rect fill="#ADD8E6" height="2" style="stroke:#181818;stroke-width:0.5;" width="4" x="924.5" y="580.9648"/><rect fill="#ADD8E6" height="2" style="stroke:#181818;stroke-width:0.5;" width="4" x="924.5" y="584.9648"/><text fill="#000000" font-family="sans-serif" font-size="14" lengthAdjust="spacing" textLength="95" x="826.5" y="607.5">OID4VP Client</text></g><!--entity OID4VCI Client--><g id="elem_OID4VCI Client"><rect fill="#ADD8E6" height="46.4883" rx="2.5" ry="2.5" style="stroke:#181818;stroke-width:0.5;" width="141" x="635.5" y="573.9648"/><rect fill="#ADD8E6" height="10" style="stroke:#181818;stroke-width:0.5;" width="15" x="756.5" y="578.9648"/><rect fill="#ADD8E6" height="2" style="stroke:#181818;stroke-width:0.5;" width="4" x="754.5" y="580.9648"/><rect fill="#ADD8E6" height="2" style="stroke:#181818;stroke-width:0.5;" width="4" x="754.5" y="584.9648"/><text fill="#000000" font-family="sans-serif" font-size="14" lengthAdjust="spacing" textLength="101" x="650.5" y="607.5">OID4VCI Client</text></g><!--entity (Q)EAA mgmt RP--><g id="elem_(Q)EAA mgmt RP"><rect fill="#F1F1F1" height="46.4883" rx="2.5" ry="2.5" style="stroke:#181818;stroke-width:0.5;" width="133" x="1084.5" y="284.7448"/><rect fill="#F1F1F1" height="10" style="stroke:#181818;stroke-width:0.5;" width="15" x="1197.5" y="289.7448"/><rect fill="#F1F1F1" height="2" style="stroke:#181818;stroke-width:0.5;" width="4" x="1195.5" y="291.7448"/><rect fill="#F1F1F1" height="2" style="stroke:#181818;stroke-width:0.5;" width="4" x="1195.5" y="295.7448"/><text fill="#000000" font-family="sans-serif" font-size="14" lengthAdjust="spacing" textLength="93" x="1099.5" y="318.28">(Q)EAA mgmt</text></g><!--entity KMS & DID mgmt RP--><g id="elem_KMS &amp; DID mgmt RP"><rect fill="#F1F1F1" height="46.4883" rx="2.5" ry="2.5" style="stroke:#181818;stroke-width:0.5;" width="155" x="1122.5" y="400.4748"/><rect fill="#F1F1F1" height="10" style="stroke:#181818;stroke-width:0.5;" width="15" x="1257.5" y="405.4748"/><rect fill="#F1F1F1" height="2" style="stroke:#181818;stroke-width:0.5;" width="4" x="1255.5" y="407.4748"/><rect fill="#F1F1F1" height="2" style="stroke:#181818;stroke-width:0.5;" width="4" x="1255.5" y="411.4748"/><text fill="#000000" font-family="sans-serif" font-size="14" lengthAdjust="spacing" textLength="115" x="1137.5" y="434.01">KMS &amp; DID mgmt</text></g><!--entity Trust mgmt RP--><g id="elem_Trust mgmt RP"><rect fill="#F1F1F1" height="46.4883" rx="2.5" ry="2.5" style="stroke:#181818;stroke-width:0.5;" width="120" x="1313" y="400.4748"/><rect fill="#F1F1F1" height="10" style="stroke:#181818;stroke-width:0.5;" width="15" x="1413" y="405.4748"/><rect fill="#F1F1F1" height="2" style="stroke:#181818;stroke-width:0.5;" width="4" x="1411" y="407.4748"/><rect fill="#F1F1F1" height="2" style="stroke:#181818;stroke-width:0.5;" width="4" x="1411" y="411.4748"/><text fill="#000000" font-family="sans-serif" font-size="14" lengthAdjust="spacing" textLength="80" x="1328" y="434.01">Trust mgmt</text></g><!--entity Web app RP--><g id="elem_Web app RP"><rect fill="#F1F1F1" height="62.9766" rx="2.5" ry="2.5" style="stroke:#181818;stroke-width:0.5;" width="150" x="1305" y="276.5048"/><rect fill="#F1F1F1" height="10" style="stroke:#181818;stroke-width:0.5;" width="15" x="1435" y="281.5048"/><rect fill="#F1F1F1" height="2" style="stroke:#181818;stroke-width:0.5;" width="4" x="1433" y="283.5048"/><rect fill="#F1F1F1" height="2" style="stroke:#181818;stroke-width:0.5;" width="4" x="1433" y="287.5048"/><text fill="#000000" font-family="sans-serif" font-size="14" lengthAdjust="spacing" textLength="70" x="1320" y="310.04">Web app /</text><text fill="#000000" font-family="sans-serif" font-size="14" lengthAdjust="spacing" textLength="110" x="1320" y="326.5283">Resource Server</text></g><!--entity Verification API--><g id="elem_Verification API"><ellipse cx="1261" cy="307.9948" fill="#F1F1F1" rx="8" ry="8" style="stroke:#181818;stroke-width:0.5;"/><text fill="#000000" font-family="sans-serif" font-size="14" lengthAdjust="spacing" textLength="104" x="1209" y="338.53">Verification API</text></g><!--entity RP DB--><g id="elem_RP DB"><path d="M1489.5,295.2448 C1489.5,285.2448 1519,285.2448 1519,285.2448 C1519,285.2448 1548.5,285.2448 1548.5,295.2448 L1548.5,320.7331 C1548.5,330.7331 1519,330.7331 1519,330.7331 C1519,330.7331 1489.5,330.7331 1489.5,320.7331 L1489.5,295.2448 " fill="#F1F1F1" style="stroke:#181818;stroke-width:0.5;"/><path d="M1489.5,295.2448 C1489.5,305.2448 1519,305.2448 1519,305.2448 C1519,305.2448 1548.5,305.2448 1548.5,295.2448 " fill="none" style="stroke:#181818;stroke-width:0.5;"/><text fill="#000000" font-family="sans-serif" font-size="14" lengthAdjust="spacing" textLength="39" x="1499.5" y="322.78">RP DB</text></g><!--entity OID4VP RP--><g id="elem_OID4VP RP"><rect fill="#ADD8E6" height="46.4883" rx="2.5" ry="2.5" style="stroke:#181818;stroke-width:0.5;" width="91" x="1163.5" y="573.9648"/><rect fill="#ADD8E6" height="10" style="stroke:#181818;stroke-width:0.5;" width="15" x="1234.5" y="578.9648"/><rect fill="#ADD8E6" height="2" style="stroke:#181818;stroke-width:0.5;" width="4" x="1232.5" y="580.9648"/><rect fill="#ADD8E6" height="2" style="stroke:#181818;stroke-width:0.5;" width="4" x="1232.5" y="584.9648"/><text fill="#000000" font-family="sans-serif" font-size="14" lengthAdjust="spacing" textLength="51" x="1178.5" y="607.5">OID4VP</text></g><!--entity OID4VP RP API--><g id="elem_OID4VP RP API"><ellipse cx="1134" cy="752.4548" fill="#F1F1F1" rx="8" ry="8" style="stroke:#181818;stroke-width:0.5;"/><text fill="#000000" font-family="sans-serif" font-size="14" lengthAdjust="spacing" textLength="98" x="1085" y="782.99">OID4VP RP API</text></g><!--entity OID4VP MGMT API--><g id="elem_OID4VP MGMT API"><ellipse cx="1248" cy="752.4548" fill="#F1F1F1" rx="8" ry="8" style="stroke:#181818;stroke-width:0.5;"/><text fill="#000000" font-family="sans-serif" font-size="14" lengthAdjust="spacing" textLength="124" x="1186" y="782.99">OID4VP MGMT API</text></g><!--link (Q)EAA Provider Issuer to Issuance API--><g id="link_(Q)EAA Provider Issuer_Issuance API"><path d="M172.3,307.9948 C183.8,307.9948 195.29,307.9948 206.78,307.9948 " fill="none" id="(Q)EAA Provider Issuer-Issuance API" style="stroke:#181818;stroke-width:1.0;"/></g><!--link (Q)EAA Provider Issuer to Trust mgmt Issuer--><g id="link_(Q)EAA Provider Issuer_Trust mgmt Issuer"><path d="M94,331.7348 C91.38,351.5648 88.3963,374.2466 85.7763,394.0666 " fill="none" id="(Q)EAA Provider Issuer-to-Trust mgmt Issuer" style="stroke:#181818;stroke-width:1.0;"/><polygon fill="#181818" points="84.99,400.0148,90.135,391.6167,85.6452,395.058,82.2039,390.5683,84.99,400.0148" style="stroke:#181818;stroke-width:1.0;"/></g><!--link (Q)EAA Provider Issuer to Auth Issuer--><g id="link_(Q)EAA Provider Issuer_Auth Issuer"><path d="M120.4,331.7348 C140.8,351.5648 165.9466,376.0138 186.3466,395.8338 " fill="none" id="(Q)EAA Provider Issuer-to-Auth Issuer" style="stroke:#181818;stroke-width:1.0;"/><polygon fill="#181818" points="190.65,400.0148,186.9823,390.8744,187.0639,396.5307,181.4076,396.6122,190.65,400.0148" style="stroke:#181818;stroke-width:1.0;"/></g><!--link (Q)EAA Provider Issuer to KMS & DID mgmt Issuer--><g id="link_(Q)EAA Provider Issuer_KMS &amp; DID mgmt Issuer"><path d="M164.21,331.6648 C172.54,334.3548 180.95,337.0148 189,339.4748 C236.23,353.9148 249.98,351.5548 296,369.4748 C318.09,378.0848 336.4257,387.0016 355.6657,397.2616 " fill="none" id="(Q)EAA Provider Issuer-to-KMS &amp; DID mgmt Issuer" style="stroke:#181818;stroke-width:1.0;"/><polygon fill="#181818" points="360.96,400.0848,354.9008,392.3205,356.5481,397.7321,351.1364,399.3795,360.96,400.0848" style="stroke:#181818;stroke-width:1.0;"/></g><!--link OID4VCI Issuer to OID4VCI MGMT API--><g id="link_OID4VCI Issuer_OID4VCI MGMT API"><path d="M403.88,597.2148 C415.11,597.2148 426.34,597.2148 437.57,597.2148 " fill="none" id="OID4VCI Issuer-OID4VCI MGMT API" style="stroke:#ADD8E6;stroke-width:1.0;"/></g><!--link OID4VCI Issuer to OID4VCI Wallet API--><g id="link_OID4VCI Issuer_OID4VCI Wallet API"><path d="M354.72,620.7548 C354.89,640.1948 356.09,668.9248 361,693.4548 C364.72,712.0448 372.94,732.8248 377.6,743.7648 " fill="none" id="OID4VCI Issuer-OID4VCI Wallet API" style="stroke:#ADD8E6;stroke-width:1.0;"/></g><!--link (Q)EAA Provider Issuer to OID4VCI MGMT API--><g id="link_(Q)EAA Provider Issuer_OID4VCI MGMT API"><path d="M151.97,331.6348 C187.26,347.7348 232.9,371.6048 268,400.4748 C288.61,417.4348 284.07,431.7648 306,446.9648 C350.35,477.7148 384.7,446.0248 421,485.9648 C447.85,515.5048 448.736,561.5207 447.836,581.8007 " fill="none" id="(Q)EAA Provider Issuer-to-OID4VCI MGMT API" style="stroke:#ADD8E6;stroke-width:1.0;"/><polygon fill="#ADD8E6" points="447.57,587.7948,451.9651,578.981,447.7917,582.7998,443.9729,578.6264,447.57,587.7948" style="stroke:#ADD8E6;stroke-width:1.0;"/></g><!--link (Q)EAA mgmt Holder to Q(E)AA api--><g id="link_(Q)EAA mgmt Holder_Q(E)AA api"><path d="M747.77,307.9948 C766.37,307.9948 784.97,307.9948 803.57,307.9948 " fill="none" id="(Q)EAA mgmt Holder-Q(E)AA api" style="stroke:#181818;stroke-width:1.0;"/></g><!--link (Q)EAA mgmt Holder to Trust mgmt Holder--><g id="link_(Q)EAA mgmt Holder_Trust mgmt Holder"><path d="M673.6,331.7348 C667.15,351.5648 659.6967,374.4894 653.2467,394.3094 " fill="none" id="(Q)EAA mgmt Holder-to-Trust mgmt Holder" style="stroke:#181818;stroke-width:1.0;"/><polygon fill="#181818" points="651.39,400.0148,657.9788,392.6944,652.9373,395.2603,650.3714,390.2188,651.39,400.0148" style="stroke:#181818;stroke-width:1.0;"/></g><!--link (Q)EAA mgmt Holder to KMS & DID mgmt Holder--><g id="link_(Q)EAA mgmt Holder_KMS &amp; DID mgmt Holder"><path d="M722.99,331.7348 C759.62,351.5648 807.2039,377.3377 843.8039,397.1577 " fill="none" id="(Q)EAA mgmt Holder-to-KMS &amp; DID mgmt Holder" style="stroke:#181818;stroke-width:1.0;"/><polygon fill="#181818" points="849.08,400.0148,843.0707,392.2118,844.6833,397.6339,839.2612,399.2465,849.08,400.0148" style="stroke:#181818;stroke-width:1.0;"/></g><!--reverse link Issuance API to (Q)EAA mgmt Holder--><g id="link_Issuance API_(Q)EAA mgmt Holder"><path d="M211.2023,293.045 C203.7423,268.545 189.36,207.1448 224.5,174.1648 C287.05,115.4648 332.74,160.9848 417.5,174.1648 C475.81,183.2348 490.96,188.6348 544,214.5048 C583.73,233.8748 625.07,263.6248 651.81,284.3448 " fill="none" id="Issuance API-backto-(Q)EAA mgmt Holder" style="stroke:#ADD8E6;stroke-width:1.0;stroke-dasharray:7.0,7.0;"/><polygon fill="#ADD8E6" points="212.95,298.7848,214.155,289.01,211.4936,294.0017,206.5019,291.3403,212.95,298.7848" style="stroke:#ADD8E6;stroke-width:1.0;"/><path d="M229.5,146.5048 L229.5,201.5048 L412.5,201.5048 L412.5,156.5048 L402.5,146.5048 L229.5,146.5048 " fill="#FEFFDD" style="stroke:#181818;stroke-width:0.5;"/><path d="M402.5,146.5048 L402.5,156.5048 L412.5,156.5048 L402.5,146.5048 " fill="#FEFFDD" style="stroke:#181818;stroke-width:0.5;"/><text fill="#000000" font-family="sans-serif" font-size="13" lengthAdjust="spacing" textLength="162" x="235.5" y="164.0732">Issuer issues one or more</text><text fill="#000000" font-family="sans-serif" font-size="13" lengthAdjust="spacing" textLength="129" x="235.5" y="179.3837">PIDs and/or (Q)EAAs</text><text fill="#000000" font-family="sans-serif" font-size="13" lengthAdjust="spacing" textLength="79" x="235.5" y="194.6943">to the Wallet</text><text fill="#000000" font-family="sans-serif" font-size="13" lengthAdjust="spacing" textLength="53" x="584.5394" y="273.9723">OID4VCI</text></g><!--link OID4VCI Client to OID4VCI Wallet API--><g id="link_OID4VCI Client_OID4VCI Wallet API"><path d="M658.05,620.8248 C579.47,657.8748 433.6267,726.6354 395.3767,744.6754 " fill="none" id="OID4VCI Client-to-OID4VCI Wallet API" style="stroke:#ADD8E6;stroke-width:1.0;"/><polygon fill="#ADD8E6" points="389.95,747.2348,399.7964,747.0135,394.4723,745.102,396.3838,739.7779,389.95,747.2348" style="stroke:#ADD8E6;stroke-width:1.0;"/></g><!--link (Q)EAA mgmt Holder to OID4VCI Client--><g id="link_(Q)EAA mgmt Holder_OID4VCI Client"><path d="M694.26,331.3848 C704.1,349.3648 716.69,375.6248 722,400.4748 C735.19,462.1548 722.3748,531.074 713.4648,567.794 " fill="none" id="(Q)EAA mgmt Holder-to-OID4VCI Client" style="stroke:#ADD8E6;stroke-width:1.0;"/><polygon fill="#ADD8E6" points="712.05,573.6248,718.0594,565.8219,713.229,568.7658,710.285,563.9354,712.05,573.6248" style="stroke:#ADD8E6;stroke-width:1.0;"/></g><!--link (Q)EAA mgmt Holder to OID4VP Client--><g id="link_(Q)EAA mgmt Holder_OID4VP Client"><path d="M696.54,331.5248 C733.55,385.2148 823.1943,515.2551 860.1343,568.8351 " fill="none" id="(Q)EAA mgmt Holder-to-OID4VP Client" style="stroke:#ADD8E6;stroke-width:1.0;"/><polygon fill="#ADD8E6" points="863.54,573.7748,861.7247,564.0947,860.7019,569.6584,855.1383,568.6356,863.54,573.7748" style="stroke:#ADD8E6;stroke-width:1.0;"/></g><!--link (Q)EAA mgmt RP to Trust mgmt RP--><g id="link_(Q)EAA mgmt RP_Trust mgmt RP"><path d="M1195.39,331.7348 C1234.11,351.5648 1284.6496,377.4598 1323.3496,397.2798 " fill="none" id="(Q)EAA mgmt RP-to-Trust mgmt RP" style="stroke:#181818;stroke-width:1.0;"/><polygon fill="#181818" points="1328.69,400.0148,1322.5028,392.352,1324.2397,397.7356,1318.8561,399.4725,1328.69,400.0148" style="stroke:#181818;stroke-width:1.0;"/></g><!--link (Q)EAA mgmt RP to KMS & DID mgmt RP--><g id="link_(Q)EAA mgmt RP_KMS &amp; DID mgmt RP"><path d="M1160.8,331.7348 C1169.34,351.5648 1179.3058,374.6846 1187.8458,394.5046 " fill="none" id="(Q)EAA mgmt RP-to-KMS &amp; DID mgmt RP" style="stroke:#181818;stroke-width:1.0;"/><polygon fill="#181818" points="1190.22,400.0148,1190.3321,390.1666,1188.2415,395.423,1182.9851,393.3323,1190.22,400.0148" style="stroke:#181818;stroke-width:1.0;"/></g><!--link (Q)EAA mgmt RP to Verification API--><g id="link_(Q)EAA mgmt RP_Verification API"><path d="M1217.6,307.9948 C1228.9,307.9948 1240.2,307.9948 1251.51,307.9948 " fill="none" id="(Q)EAA mgmt RP-Verification API" style="stroke:#181818;stroke-width:1.0;"/></g><!--link (Q)EAA mgmt Holder to Verification API--><g id="link_(Q)EAA mgmt Holder_Verification API"><path d="M684.91,284.2748 C691.51,252.7748 708.17,198.3148 747,174.1648 C841.36,115.4948 886.28,164.8548 997,174.1648 C1103.91,183.1648 1155.32,142.6548 1235,214.5048 C1259.52,236.6148 1261.838,273.6656 1261.528,292.6356 " fill="none" id="(Q)EAA mgmt Holder-to-Verification API" style="stroke:#ADD8E6;stroke-width:1.0;stroke-dasharray:7.0,7.0;"/><polygon fill="#ADD8E6" points="1261.43,298.6348,1265.5765,289.7014,1261.5117,293.6355,1257.5776,289.5707,1261.43,298.6348" style="stroke:#ADD8E6;stroke-width:1.0;"/><path d="M752,146.5048 L752,201.5048 L992,201.5048 L992,156.5048 L982,146.5048 L752,146.5048 " fill="#FEFFDD" style="stroke:#181818;stroke-width:0.5;"/><path d="M982,146.5048 L982,156.5048 L992,156.5048 L982,146.5048 " fill="#FEFFDD" style="stroke:#181818;stroke-width:0.5;"/><text fill="#000000" font-family="sans-serif" font-size="13" lengthAdjust="spacing" textLength="219" x="758" y="164.0732">Relying Party requests one or more</text><text fill="#000000" font-family="sans-serif" font-size="13" lengthAdjust="spacing" textLength="129" x="758" y="179.3837">PIDs and/or (Q)EAAs</text><text fill="#000000" font-family="sans-serif" font-size="13" lengthAdjust="spacing" textLength="95" x="758" y="194.6943">from the wallet</text><text fill="#000000" font-family="sans-serif" font-size="13" lengthAdjust="spacing" textLength="47" x="691.9338" y="273.8844">OID4VP</text></g><!--link OID4VP RP to OID4VP RP API--><g id="link_OID4VP RP_OID4VP RP API"><path d="M1197.93,620.8248 C1180.98,655.4548 1149.37,720.0448 1138.11,743.0548 " fill="none" id="OID4VP RP-OID4VP RP API" style="stroke:#ADD8E6;stroke-width:1.0;"/></g><!--link OID4VP RP to OID4VP MGMT API--><g id="link_OID4VP RP_OID4VP MGMT API"><path d="M1214.75,620.8248 C1223.65,655.7948 1240.32,721.2948 1246.03,743.7048 " fill="none" id="OID4VP RP-OID4VP MGMT API" style="stroke:#ADD8E6;stroke-width:1.0;"/></g><!--link OID4VP Client to OID4VP RP API--><g id="link_OID4VP Client_OID4VP RP API"><path d="M892.99,620.9048 C905.92,640.1948 926.75,667.3948 951,684.4548 C1009.66,725.7248 1090.7723,743.4815 1118.9423,748.7515 " fill="none" id="OID4VP Client-to-OID4VP RP API" style="stroke:#ADD8E6;stroke-width:1.0;"/><polygon fill="#ADD8E6" points="1124.84,749.8548,1116.729,744.2681,1119.9253,748.9354,1115.2579,752.1316,1124.84,749.8548" style="stroke:#ADD8E6;stroke-width:1.0;"/></g><!--link (Q)EAA mgmt RP to OID4VP MGMT API--><g id="link_(Q)EAA mgmt RP_OID4VP MGMT API"><path d="M1135.91,331.5248 C1124.92,349.3748 1110.95,375.3948 1105,400.4748 C1083.89,489.4748 1094.72,606.2348 1146,684.4548 C1169.35,720.0648 1213.2728,739.0101 1233.4928,746.3801 " fill="none" id="(Q)EAA mgmt RP-to-OID4VP MGMT API" style="stroke:#ADD8E6;stroke-width:1.0;"/><polygon fill="#ADD8E6" points="1239.13,748.4348,1232.044,741.5946,1234.4323,746.7226,1229.3044,749.1109,1239.13,748.4348" style="stroke:#ADD8E6;stroke-width:1.0;"/></g><!--link Issuance API to Issuance API interfaces--><g id="link_Issuance API_Issuance API interfaces"><path d="M221.19,317.2548 C226,324.2348 233.79,333.9448 243,339.4748 C342.13,399.0748 422.59,311.0848 496,400.4748 C523.195,433.5948 525.5575,481.5298 520.9438,521.6723 C519.7903,531.708 518.2009,541.2566 516.4544,549.9649 C515.5812,554.319 514.6687,558.4631 513.7518,562.353 C513.2934,564.2979 512.8339,566.1793 512.3776,567.9916 C512.2635,568.4447 513.6356,563.0804 513.5221,563.5247 " fill="none" id="Issuance API-to-Issuance API interfaces" style="stroke:#181818;stroke-width:1.0;stroke-dasharray:7.0,7.0;"/><polygon fill="#181818" points="512.0361,569.3378,518.1404,561.6088,513.2744,564.4936,510.3897,559.6275,512.0361,569.3378" style="stroke:#181818;stroke-width:1.0;"/></g><!--link Q(E)AA api to Wallet transport--><g id="link_Q(E)AA api_Wallet transport"><path d="M822.23,315.1148 C831.96,321.4848 847.81,331.5948 862,339.4748 C915.7,369.2948 953.54,348.3348 986,400.4748 C1008.63,436.8348 1008.015,484.8198 1001.555,524.1786 C999.94,534.0183 997.9597,543.3188 995.8859,551.7638 C994.8491,555.9863 993.7888,559.9949 992.7392,563.7501 C992.2144,565.6276 991.6923,567.4418 991.177,569.1878 C990.9194,570.0607 990.6635,570.9166 990.4099,571.7548 C990.283,572.1739 991.9139,566.8516 991.7883,567.2617 " fill="none" id="Q(E)AA api-to-Wallet transport" style="stroke:#181818;stroke-width:1.0;stroke-dasharray:7.0,7.0;"/><polygon fill="#181818" points="990.0312,572.9987,996.4914,565.5647,991.4954,568.2179,988.8422,563.2219,990.0312,572.9987" style="stroke:#181818;stroke-width:1.0;"/></g><!--link Verification API to Relying Party API interfaces--><g id="link_Verification API_Relying Party API interfaces"><path d="M1266.56,317.2548 C1271.49,324.0348 1279.26,333.4748 1288,339.4748 C1351.75,383.2848 1406.92,336.9148 1451,400.4748 C1477.405,438.5548 1458.195,486.5673 1431.8763,525.5098 C1418.7169,544.9811 1403.7803,562.1848 1391.8798,574.7458 C1388.9047,577.886 1386.1194,580.7361 1383.599,583.2588 C1382.3388,584.5202 1381.1448,585.6998 1380.0265,586.7929 C1379.4673,587.3394 1378.9271,587.8644 1378.4069,588.3671 C1378.2769,588.4928 1382.4681,584.4533 1382.3406,584.5762 " fill="none" id="Verification API-to-Relying Party API interfaces" style="stroke:#181818;stroke-width:1.0;stroke-dasharray:7.0,7.0;"/><polygon fill="#181818" points="1378.0206,588.74,1387.2765,585.3743,1381.6206,585.2701,1381.7247,579.6142,1378.0206,588.74" style="stroke:#181818;stroke-width:1.0;"/></g><text fill="#000000" font-family="sans-serif" font-size="14" lengthAdjust="spacing" textLength="656" x="450.5" y="857.99">These are high level functional components for the issuer, holder/wallet and relying party roles.</text><text fill="#000000" font-family="sans-serif" font-size="14" lengthAdjust="spacing" textLength="430" x="563.5" y="874.4783">Given these are roles a single system could fulfill multiple roles</text><!--SRC=[bLPBRnen4BxxLuo8r8TKuD9J5I7Hq0Tgesv9r1xQ70mxW1MllRMzYQ8c_xrZxmBU5w58eDsPRnuUVpF3owrpkNqt7kUIArTaShJIsPY-kLQet30LV6DunfYz5Ihdz0WIDwZIztnrkp6wKEc5bjh0sVrME6p1Fcg3DTXIaY5ZJZY9y5bijWIyGmdhGgsSq8fBs4UtaAC1eoMo5S-z5gwtQ16uGTW-PxkcS6wB8AmjqBo1hPOfcl4zbn8TS9M2GVaWr0OeOVSGujZHR_L9tA7obbMW80SEbg2Kitsm3ZCALCYK8ikra1AoGZgHomhCohE3qpbbk7RiQtXdZ-TBElmxIPcxfInmShxoHOa4PsVdOu-PFC9qyP4I_5C8WnH7wdiRif62mgSW59JEGjdRZlnFvGeUcK-cp8cnd6HyWp1uzVtrX-aK4gFl11K6XZ0FbHh0NmRmgw6-0MvRmihYnkE_N5x12vZDPv1jCbV2wx8OVMqAwoBauJr6JGktBVN-ATRyn2NmF8VnRxL0gmkpGhX2SxTBTAUFJ7foftCF_2DNv6AQp0T7iSD9Nwv7JPhf7mNtL8tiKkxuaXCl1wKGPk_BstfYZ2cTOlqen1A7PirNQ4iOHVusdxtzSJ4lgrIzxCEVxGbK0n_ICxyEa1igt0vm-UdoUbUyBhkqn-vdsOm7ozx2r3rCka8_CL-6YE6bz_7dqFXrMX-O5mcWH9vAvmXzXCuHgYEKPz_tLnzUavZdOj2BQl3kEQSTD7h6P5VF0OnaNEhHfDqUIZiCWmre8akXRiFTbP-Ac67eMj8Zq1ZEQ0j4c6G-itu0ZqbLvc8ZhTDXR9UNHt8_l7p46lyhuX3_MKWeFSYSuShcshYAyoKR4xYGWlP2a-Hxhfwe7lRni47bxdjf63Uz_wTX4jaHzPzgv5zKootno-qKyY-IKubV8O-GlaASEgKhU2ER5kkFmRfJR45Xy0EDM8iL3tydgjiwy6gH14uTRPA4UiGqUwJBRUWJus4TZG9Gkw6mwz6wlfvvhci0raPdeNFkMvspRv5woEuLiU-OQ4SaeNgDzG0rvR1hn7lLORgVP51V9UtsRUoWIK-aZhlliOi3xhg8rMSUZD9HSn36bMFn3D-1M-E8jKcomnwz5_OF]--></g></svg>