<?xml version="1.0" encoding="us-ascii" standalone="no"?><svg xmlns="http://www.w3.org/2000/svg" xmlns:xlink="http://www.w3.org/1999/xlink" contentStyleType="text/css" height="450.1221px" preserveAspectRatio="none" style="width:639px;height:450px;" version="1.1" viewBox="0 0 639 450" width="639.7569px" zoomAndPan="magnify"><defs/><g><line style="stroke:#181818;stroke-width:0.3473164378357844;stroke-dasharray:5.0,5.0;" x1="36.8155" x2="36.8155" y1="56.6044" y2="394.4375"/><line style="stroke:#181818;stroke-width:0.3473164378357844;stroke-dasharray:5.0,5.0;" x1="222.2825" x2="222.2825" y1="56.6044" y2="394.4375"/><line style="stroke:#181818;stroke-width:0.3473164378357844;stroke-dasharray:5.0,5.0;" x1="309.8063" x2="309.8063" y1="56.6044" y2="394.4375"/><line style="stroke:#181818;stroke-width:0.3473164378357844;stroke-dasharray:5.0,5.0;" x1="414.6958" x2="414.6958" y1="56.6044" y2="394.4375"/><line style="stroke:#181818;stroke-width:0.3473164378357844;stroke-dasharray:5.0,5.0;" x1="475.1289" x2="475.1289" y1="56.6044" y2="394.4375"/><line style="stroke:#181818;stroke-width:0.3473164378357844;stroke-dasharray:5.0,5.0;" x1="564.7365" x2="564.7365" y1="56.6044" y2="394.4375"/><text fill="#000000" font-family="sans-serif" font-size="9.7249" lengthAdjust="spacing" textLength="63.2116" x="3.4732" y="54.5531">Entrepreneur</text><ellipse cx="37.1629" cy="9.3775" fill="#E2E2F0" rx="5.5571" ry="5.5571" style="stroke:#181818;stroke-width:0.3473164378357844;"/><path d="M37.1629,14.9346 L37.1629,33.6897 M28.1326,20.4917 L46.1931,20.4917 M37.1629,33.6897 L28.1326,44.1092 M37.1629,33.6897 L46.1931,44.1092 " fill="none" style="stroke:#181818;stroke-width:0.3473164378357844;"/><text fill="#000000" font-family="sans-serif" font-size="9.7249" lengthAdjust="spacing" textLength="63.2116" x="3.4732" y="403.1448">Entrepreneur</text><ellipse cx="37.1629" cy="411.1006" fill="#E2E2F0" rx="5.5571" ry="5.5571" style="stroke:#181818;stroke-width:0.3473164378357844;"/><path d="M37.1629,416.6576 L37.1629,435.4127 M28.1326,422.2147 L46.1931,422.2147 M37.1629,435.4127 L28.1326,445.8322 M37.1629,435.4127 L46.1931,445.8322 " fill="none" style="stroke:#181818;stroke-width:0.3473164378357844;"/><rect fill="#E2E2F0" height="21.1782" rx="1.7366" ry="1.7366" style="stroke:#181818;stroke-width:0.3473164378357844;" width="40.9833" x="202.1382" y="34.7316"/><text fill="#000000" font-family="sans-serif" font-size="9.7249" lengthAdjust="spacing" textLength="31.2585" x="207.0006" y="48.996">Notary</text><rect fill="#E2E2F0" height="21.1782" rx="1.7366" ry="1.7366" style="stroke:#181818;stroke-width:0.3473164378357844;" width="40.9833" x="202.1382" y="393.7429"/><text fill="#000000" font-family="sans-serif" font-size="9.7249" lengthAdjust="spacing" textLength="31.2585" x="207.0006" y="408.0073">Notary</text><rect fill="#E2E2F0" height="21.1782" rx="1.7366" ry="1.7366" style="stroke:#181818;stroke-width:0.3473164378357844;" width="120.1715" x="250.0678" y="34.7316"/><text fill="#000000" font-family="sans-serif" font-size="9.7249" lengthAdjust="spacing" textLength="110.4466" x="254.9303" y="48.996">Chamber of Commerce</text><rect fill="#E2E2F0" height="21.1782" rx="1.7366" ry="1.7366" style="stroke:#181818;stroke-width:0.3473164378357844;" width="120.1715" x="250.0678" y="393.7429"/><text fill="#000000" font-family="sans-serif" font-size="9.7249" lengthAdjust="spacing" textLength="110.4466" x="254.9303" y="408.0073">Chamber of Commerce</text><rect fill="#E2E2F0" height="21.1782" rx="1.7366" ry="1.7366" style="stroke:#181818;stroke-width:0.3473164378357844;" width="75.0204" x="377.1857" y="34.7316"/><text fill="#000000" font-family="sans-serif" font-size="9.7249" lengthAdjust="spacing" textLength="65.2955" x="382.0481" y="48.996">Tax Authority</text><rect fill="#E2E2F0" height="21.1782" rx="1.7366" ry="1.7366" style="stroke:#181818;stroke-width:0.3473164378357844;" width="75.0204" x="377.1857" y="393.7429"/><text fill="#000000" font-family="sans-serif" font-size="9.7249" lengthAdjust="spacing" textLength="65.2955" x="382.0481" y="408.0073">Tax Authority</text><rect fill="#E2E2F0" height="21.1782" rx="1.7366" ry="1.7366" style="stroke:#181818;stroke-width:0.3473164378357844;" width="32.6477" x="459.1523" y="34.7316"/><text fill="#000000" font-family="sans-serif" font-size="9.7249" lengthAdjust="spacing" textLength="22.9229" x="464.0148" y="48.996">Bank</text><rect fill="#E2E2F0" height="21.1782" rx="1.7366" ry="1.7366" style="stroke:#181818;stroke-width:0.3473164378357844;" width="32.6477" x="459.1523" y="393.7429"/><text fill="#000000" font-family="sans-serif" font-size="9.7249" lengthAdjust="spacing" textLength="22.9229" x="464.0148" y="408.0073">Bank</text><rect fill="#E2E2F0" height="21.1782" rx="1.7366" ry="1.7366" style="stroke:#181818;stroke-width:0.3473164378357844;" width="132.6749" x="498.7464" y="34.7316"/><text fill="#000000" font-family="sans-serif" font-size="9.7249" lengthAdjust="spacing" textLength="122.95" x="503.6088" y="48.996">Legal Advisor/Accountant</text><rect fill="#E2E2F0" height="21.1782" rx="1.7366" ry="1.7366" style="stroke:#181818;stroke-width:0.3473164378357844;" width="132.6749" x="498.7464" y="393.7429"/><text fill="#000000" font-family="sans-serif" font-size="9.7249" lengthAdjust="spacing" textLength="122.95" x="503.6088" y="408.0073">Legal Advisor/Accountant</text><rect fill="#EEEEEE" height="2.0839" style="stroke:#EEEEEE;stroke-width:0.6946328756715688;" width="634.8944" x="0" y="77.8986"/><line style="stroke:#000000;stroke-width:0.6946328756715688;" x1="0" x2="634.8944" y1="77.8986" y2="77.8986"/><line style="stroke:#000000;stroke-width:0.6946328756715688;" x1="0" x2="634.8944" y1="79.9825" y2="79.9825"/><rect fill="#EEEEEE" height="16.1923" style="stroke:#000000;stroke-width:1.3892657513431377;" width="114.6144" x="260.14" y="70.4971"/><text fill="#000000" font-family="sans-serif" font-size="9.0302" font-weight="bold" lengthAdjust="spacing" textLength="102.111" x="264.3078" y="82.006">Deed of Incorporation</text><polygon fill="#181818" points="44.8038,105.6602,37.8575,108.4387,44.8038,111.2172,42.0253,108.4387" style="stroke:#181818;stroke-width:0.6946328756715688;"/><line style="stroke:#181818;stroke-width:0.6946328756715688;" x1="40.636" x2="221.9352" y1="108.4387" y2="108.4387"/><text fill="#000000" font-family="sans-serif" font-size="9.0302" lengthAdjust="spacing" textLength="122.2554" x="48.9716" y="105.1446">Verify identities and legality</text><polygon fill="#181818" points="44.8038,126.0202,37.8575,128.7988,44.8038,131.5773,42.0253,128.7988" style="stroke:#181818;stroke-width:0.6946328756715688;"/><polygon fill="#181818" points="214.2942,126.0202,221.2406,128.7988,214.2942,131.5773,217.0728,128.7988" style="stroke:#181818;stroke-width:0.6946328756715688;"/><line style="stroke:#181818;stroke-width:0.6946328756715688;" x1="40.636" x2="218.462" y1="128.7988" y2="128.7988"/><text fill="#000000" font-family="sans-serif" font-size="9.0302" lengthAdjust="spacing" textLength="168.7958" x="48.9716" y="125.5047">Execution of the deed of incorporation</text><polygon fill="#181818" points="44.8038,146.3803,37.8575,149.1588,44.8038,151.9374,42.0253,149.1588" style="stroke:#181818;stroke-width:0.6946328756715688;"/><line style="stroke:#181818;stroke-width:0.6946328756715688;" x1="40.636" x2="221.9352" y1="149.1588" y2="149.1588"/><text fill="#000000" font-family="sans-serif" font-size="9.0302" lengthAdjust="spacing" textLength="168.1012" x="48.9716" y="145.8648">Issue "Incorporation Deed" Attestation</text><rect fill="#EEEEEE" height="2.0839" style="stroke:#EEEEEE;stroke-width:0.6946328756715688;" width="634.8944" x="0" y="169.0637"/><line style="stroke:#000000;stroke-width:0.6946328756715688;" x1="0" x2="634.8944" y1="169.0637" y2="169.0637"/><line style="stroke:#000000;stroke-width:0.6946328756715688;" x1="0" x2="634.8944" y1="171.1476" y2="171.1476"/><rect fill="#EEEEEE" height="16.1923" style="stroke:#000000;stroke-width:1.3892657513431377;" width="222.2825" x="206.306" y="161.6622"/><text fill="#000000" font-family="sans-serif" font-size="9.0302" font-weight="bold" lengthAdjust="spacing" textLength="209.7791" x="210.4738" y="173.1712">Registration at Dutch Chamber of Commerce</text><polygon fill="#181818" points="44.8038,196.8253,37.8575,199.6038,44.8038,202.3824,42.0253,199.6038" style="stroke:#181818;stroke-width:0.6946328756715688;"/><line style="stroke:#181818;stroke-width:0.6946328756715688;" x1="40.636" x2="309.4589" y1="199.6038" y2="199.6038"/><text fill="#000000" font-family="sans-serif" font-size="9.0302" lengthAdjust="spacing" textLength="138.2319" x="48.9716" y="196.3098">Verify incorporation documents</text><polygon fill="#181818" points="44.8038,217.1854,37.8575,219.9639,44.8038,222.7424,42.0253,219.9639" style="stroke:#181818;stroke-width:0.6946328756715688;"/><line style="stroke:#181818;stroke-width:0.6946328756715688;" x1="40.636" x2="309.4589" y1="219.9639" y2="219.9639"/><text fill="#000000" font-family="sans-serif" font-size="9.0302" lengthAdjust="spacing" textLength="239.6483" x="48.9716" y="216.6698">Issue "Chamber of Commerce Registration" Attestation</text><rect fill="#EEEEEE" height="2.0839" style="stroke:#EEEEEE;stroke-width:0.6946328756715688;" width="634.8944" x="0" y="239.8688"/><line style="stroke:#000000;stroke-width:0.6946328756715688;" x1="0" x2="634.8944" y1="239.8688" y2="239.8688"/><line style="stroke:#000000;stroke-width:0.6946328756715688;" x1="0" x2="634.8944" y1="241.9527" y2="241.9527"/><rect fill="#EEEEEE" height="16.1923" style="stroke:#000000;stroke-width:1.3892657513431377;" width="89.6076" x="272.6434" y="232.4673"/><text fill="#000000" font-family="sans-serif" font-size="9.0302" font-weight="bold" lengthAdjust="spacing" textLength="77.1042" x="276.8112" y="243.9762">Tax Registration</text><polygon fill="#181818" points="406.3602,267.6304,413.3066,270.4089,406.3602,273.1874,409.1388,270.4089" style="stroke:#181818;stroke-width:0.6946328756715688;"/><line style="stroke:#181818;stroke-width:0.6946328756715688;" x1="37.1629" x2="410.528" y1="270.4089" y2="270.4089"/><text fill="#000000" font-family="sans-serif" font-size="9.0302" lengthAdjust="spacing" textLength="128.5071" x="42.0253" y="267.1148">Register for tax identification</text><polygon fill="#181818" points="44.8038,287.9904,37.8575,290.769,44.8038,293.5475,42.0253,290.769" style="stroke:#181818;stroke-width:0.6946328756715688;"/><line style="stroke:#181818;stroke-width:0.6946328756715688;" x1="40.636" x2="414.0012" y1="290.769" y2="290.769"/><text fill="#000000" font-family="sans-serif" font-size="9.0302" lengthAdjust="spacing" textLength="110.4466" x="48.9716" y="287.4749">Issue "VAT ID" Attesation</text><rect fill="#EEEEEE" height="2.0839" style="stroke:#EEEEEE;stroke-width:0.6946328756715688;" width="634.8944" x="0" y="310.6739"/><line style="stroke:#000000;stroke-width:0.6946328756715688;" x1="0" x2="634.8944" y1="310.6739" y2="310.6739"/><line style="stroke:#000000;stroke-width:0.6946328756715688;" x1="0" x2="634.8944" y1="312.7578" y2="312.7578"/><rect fill="#EEEEEE" height="16.1923" style="stroke:#000000;stroke-width:1.3892657513431377;" width="128.5071" x="253.1937" y="303.2724"/><text fill="#000000" font-family="sans-serif" font-size="9.0302" font-weight="bold" lengthAdjust="spacing" textLength="116.0037" x="257.3615" y="314.7813">Opening a Bank Account</text><polygon fill="#181818" points="467.1406,338.4354,474.0869,341.214,467.1406,343.9925,469.9191,341.214" style="stroke:#181818;stroke-width:0.6946328756715688;"/><line style="stroke:#181818;stroke-width:0.6946328756715688;" x1="37.1629" x2="471.3084" y1="341.214" y2="341.214"/><text fill="#000000" font-family="sans-serif" font-size="9.0302" lengthAdjust="spacing" textLength="157.6817" x="42.0253" y="337.9199">Request to open a business account</text><polygon fill="#181818" points="44.8038,358.7955,37.8575,361.574,44.8038,364.3526,42.0253,361.574" style="stroke:#181818;stroke-width:0.6946328756715688;"/><line style="stroke:#181818;stroke-width:0.6946328756715688;" x1="40.636" x2="474.7816" y1="361.574" y2="361.574"/><text fill="#000000" font-family="sans-serif" font-size="9.0302" lengthAdjust="spacing" textLength="136.148" x="48.9716" y="358.28">Verify KYC and AML credentials</text><polygon fill="#181818" points="44.8038,379.1556,37.8575,381.9341,44.8038,384.7126,42.0253,381.9341" style="stroke:#181818;stroke-width:0.6946328756715688;"/><line style="stroke:#181818;stroke-width:0.6946328756715688;" x1="40.636" x2="474.7816" y1="381.9341" y2="381.9341"/><text fill="#000000" font-family="sans-serif" font-size="9.0302" lengthAdjust="spacing" textLength="143.789" x="48.9716" y="378.64">Issue "Bank Account" Attestation</text><!--SRC=[RP9DRzim38Rl_XM4xqDtM2z1Cy1BUWZI3w0e2kp8o8mjn9OyYIhIVp_g0rlKz68OvCkN3qbvXHF1Z6VuSViTHjB3o8q_QREWmnaEg4w3iy7q6pjP1-pGU4cHuQP1nHBgqXSzjFU67IsIe-3QHbIibLxGC3nPHlUHHFctJk_Vzoct6N4-a0DxX8sTPtAAQk4hdhl0etMQivi4u5-arlv2SqgQ-5Ed7cZ0gUlVjI_aAG0bSjCf9HEpADkcMQzXIzH7ffrHrYtM8MjhOBrkobZVVkObhE2Dd3v-WEvbFverUK3JmnJTXQ_9gxeJVQvSmVsPL4XsuiyZGLzwwSjUrurstWU2jYQAd2rqpEGvrmdy2mtQSr4WmpQm6k6BJSU1uY6kfwcQz5Q5MSRpdyI5w2lZIuIQBmB64rQGmf4N9UQN1ryLcRWVurEKkhpeerRPhdeULsXltIlijWNWV__dXOms0s1-CUNu5KLCnEv_Wf03Mx1I8mM7uBKXBrVEHKrok5hW_lSclOFkyG6KeyICa_-iBfYN5FMs_W80]--></g></svg>