<?xml version="1.0" encoding="us-ascii" standalone="no"?><svg xmlns="http://www.w3.org/2000/svg" xmlns:xlink="http://www.w3.org/1999/xlink" contentStyleType="text/css" height="450.3504px" preserveAspectRatio="none" style="width:667px;height:450px;background:#FFFFFF;" version="1.1" viewBox="0 0 667 450" width="667.2392px" zoomAndPan="magnify"><defs/><g><line style="stroke:#181818;stroke-width:0.36028034314200735;stroke-dasharray:5.0,5.0;" x1="41.7925" x2="41.7925" y1="58.7173" y2="392.3636"/><line style="stroke:#181818;stroke-width:0.36028034314200735;stroke-dasharray:5.0,5.0;" x1="234.1822" x2="234.1822" y1="58.7173" y2="392.3636"/><line style="stroke:#181818;stroke-width:0.36028034314200735;stroke-dasharray:5.0,5.0;" x1="324.9729" x2="324.9729" y1="58.7173" y2="392.3636"/><line style="stroke:#181818;stroke-width:0.36028034314200735;stroke-dasharray:5.0,5.0;" x1="433.7775" x2="433.7775" y1="58.7173" y2="392.3636"/><line style="stroke:#181818;stroke-width:0.36028034314200735;stroke-dasharray:5.0,5.0;" x1="496.4663" x2="496.4663" y1="58.7173" y2="392.3636"/><line style="stroke:#181818;stroke-width:0.36028034314200735;stroke-dasharray:5.0,5.0;" x1="589.4186" x2="589.4186" y1="58.7173" y2="392.3636"/><text fill="#000000" font-family="sans-serif" font-size="10.0878" lengthAdjust="spacing" textLength="72.7766" x="3.6028" y="56.5893">Entrepreneur[]</text><ellipse cx="42.1528" cy="9.7276" fill="#E2E2F0" rx="5.7645" ry="5.7645" style="stroke:#181818;stroke-width:0.36028034314200735;"/><path d="M42.1528,15.4921 L42.1528,34.9472 M32.7855,21.2565 L51.5201,21.2565 M42.1528,34.9472 L32.7855,45.7556 M42.1528,34.9472 L51.5201,45.7556 " fill="none" style="stroke:#181818;stroke-width:0.36028034314200735;"/><text fill="#000000" font-family="sans-serif" font-size="10.0878" lengthAdjust="spacing" textLength="72.7766" x="3.6028" y="401.3959">Entrepreneur[]</text><ellipse cx="42.1528" cy="409.6486" fill="#E2E2F0" rx="5.7645" ry="5.7645" style="stroke:#181818;stroke-width:0.36028034314200735;"/><path d="M42.1528,415.4131 L42.1528,434.8682 M32.7855,421.1776 L51.5201,421.1776 M42.1528,434.8682 L32.7855,445.6766 M42.1528,434.8682 L51.5201,445.6766 " fill="none" style="stroke:#181818;stroke-width:0.36028034314200735;"/><rect fill="#E2E2F0" height="21.9687" rx="1.8014" ry="1.8014" style="stroke:#181818;stroke-width:0.36028034314200735;" width="42.5131" x="213.286" y="36.028"/><text fill="#000000" font-family="sans-serif" font-size="10.0878" lengthAdjust="spacing" textLength="32.4252" x="218.3299" y="50.8249">Notary</text><rect fill="#E2E2F0" height="21.9687" rx="1.8014" ry="1.8014" style="stroke:#181818;stroke-width:0.36028034314200735;" width="42.5131" x="213.286" y="391.643"/><text fill="#000000" font-family="sans-serif" font-size="10.0878" lengthAdjust="spacing" textLength="32.4252" x="218.3299" y="406.4399">Notary</text><rect fill="#E2E2F0" height="21.9687" rx="1.8014" ry="1.8014" style="stroke:#181818;stroke-width:0.36028034314200735;" width="124.657" x="263.0047" y="36.028"/><text fill="#000000" font-family="sans-serif" font-size="10.0878" lengthAdjust="spacing" textLength="114.5691" x="268.0486" y="50.8249">Chamber of Commerce</text><rect fill="#E2E2F0" height="21.9687" rx="1.8014" ry="1.8014" style="stroke:#181818;stroke-width:0.36028034314200735;" width="124.657" x="263.0047" y="391.643"/><text fill="#000000" font-family="sans-serif" font-size="10.0878" lengthAdjust="spacing" textLength="114.5691" x="268.0486" y="406.4399">Chamber of Commerce</text><rect fill="#E2E2F0" height="21.9687" rx="1.8014" ry="1.8014" style="stroke:#181818;stroke-width:0.36028034314200735;" width="77.8206" x="394.8673" y="36.028"/><text fill="#000000" font-family="sans-serif" font-size="10.0878" lengthAdjust="spacing" textLength="67.7327" x="399.9112" y="50.8249">Tax Authority</text><rect fill="#E2E2F0" height="21.9687" rx="1.8014" ry="1.8014" style="stroke:#181818;stroke-width:0.36028034314200735;" width="77.8206" x="394.8673" y="391.643"/><text fill="#000000" font-family="sans-serif" font-size="10.0878" lengthAdjust="spacing" textLength="67.7327" x="399.9112" y="406.4399">Tax Authority</text><rect fill="#E2E2F0" height="21.9687" rx="1.8014" ry="1.8014" style="stroke:#181818;stroke-width:0.36028034314200735;" width="33.8664" x="479.8934" y="36.028"/><text fill="#000000" font-family="sans-serif" font-size="10.0878" lengthAdjust="spacing" textLength="23.7785" x="484.9373" y="50.8249">Bank</text><rect fill="#E2E2F0" height="21.9687" rx="1.8014" ry="1.8014" style="stroke:#181818;stroke-width:0.36028034314200735;" width="33.8664" x="479.8934" y="391.643"/><text fill="#000000" font-family="sans-serif" font-size="10.0878" lengthAdjust="spacing" textLength="23.7785" x="484.9373" y="406.4399">Bank</text><rect fill="#E2E2F0" height="21.9687" rx="1.8014" ry="1.8014" style="stroke:#181818;stroke-width:0.36028034314200735;" width="137.6271" x="520.9654" y="36.028"/><text fill="#000000" font-family="sans-serif" font-size="10.0878" lengthAdjust="spacing" textLength="127.5392" x="526.0093" y="50.8249">Legal Advisor/Accountant</text><rect fill="#E2E2F0" height="21.9687" rx="1.8014" ry="1.8014" style="stroke:#181818;stroke-width:0.36028034314200735;" width="137.6271" x="520.9654" y="391.643"/><text fill="#000000" font-family="sans-serif" font-size="10.0878" lengthAdjust="spacing" textLength="127.5392" x="526.0093" y="406.4399">Legal Advisor/Accountant</text><rect fill="#EEEEEE" height="2.1617" style="stroke:#EEEEEE;stroke-width:0.7205606862840147;" width="662.1953" x="0" y="80.8062"/><line style="stroke:#000000;stroke-width:0.7205606862840147;" x1="0" x2="662.1953" y1="80.8062" y2="80.8062"/><line style="stroke:#000000;stroke-width:0.7205606862840147;" x1="0" x2="662.1953" y1="82.9679" y2="82.9679"/><rect fill="#EEEEEE" height="16.7967" style="stroke:#000000;stroke-width:1.4411213725680294;" width="118.8925" x="271.6514" y="73.1285"/><text fill="#000000" font-family="sans-serif" font-size="9.3673" font-weight="bold" lengthAdjust="spacing" textLength="105.9224" x="275.9747" y="85.067">Deed of Incorporation</text><polygon fill="#181818" points="50.079,109.604,42.8734,112.4863,50.079,115.3685,47.1967,112.4863" style="stroke:#181818;stroke-width:0.7205606862840147;"/><line style="stroke:#181818;stroke-width:0.7205606862840147;" x1="45.7556" x2="233.8219" y1="112.4863" y2="112.4863"/><text fill="#000000" font-family="sans-serif" font-size="9.3673" lengthAdjust="spacing" textLength="126.8187" x="54.4023" y="109.0692">Verify identities and legality</text><polygon fill="#181818" points="50.079,132.8857,42.8734,135.768,50.079,138.6502,47.1967,135.768" style="stroke:#181818;stroke-width:0.7205606862840147;"/><polygon fill="#181818" points="225.8958,132.8857,233.1014,135.768,225.8958,138.6502,228.778,135.768" style="stroke:#181818;stroke-width:0.7205606862840147;"/><line style="stroke:#181818;stroke-width:0.7205606862840147;" x1="45.7556" x2="230.2191" y1="135.768" y2="135.768"/><text fill="#000000" font-family="sans-serif" font-size="9.3673" lengthAdjust="spacing" textLength="175.0962" x="54.4023" y="132.351">Execution of the deed of incorporation</text><path d="M237.785,121.8536 L237.785,139.8676 L359.5598,139.8676 L359.5598,129.0592 L352.3542,121.8536 L237.785,121.8536 " fill="#FEFFDD" style="stroke:#181818;stroke-width:0.36028034314200735;"/><path d="M352.3542,121.8536 L352.3542,129.0592 L359.5598,129.0592 L352.3542,121.8536 " fill="#FEFFDD" style="stroke:#181818;stroke-width:0.36028034314200735;"/><text fill="#000000" font-family="sans-serif" font-size="9.3673" lengthAdjust="spacing" textLength="106.643" x="242.1084" y="134.5126">2x issuance? Multi-sig?</text><rect fill="#EEEEEE" height="2.1617" style="stroke:#EEEEEE;stroke-width:0.7205606862840147;" width="662.1953" x="0" y="158.5775"/><line style="stroke:#000000;stroke-width:0.7205606862840147;" x1="0" x2="662.1953" y1="158.5775" y2="158.5775"/><line style="stroke:#000000;stroke-width:0.7205606862840147;" x1="0" x2="662.1953" y1="160.7392" y2="160.7392"/><rect fill="#EEEEEE" height="16.7967" style="stroke:#000000;stroke-width:1.4411213725680294;" width="105.9224" x="278.1364" y="150.8998"/><text fill="#000000" font-family="sans-serif" font-size="9.3673" font-weight="bold" lengthAdjust="spacing" textLength="92.9523" x="282.4598" y="162.8383">Registration at KvK</text><polygon fill="#181818" points="50.079,187.3753,42.8734,190.2576,50.079,193.1398,47.1967,190.2576" style="stroke:#181818;stroke-width:0.7205606862840147;"/><line style="stroke:#181818;stroke-width:0.7205606862840147;" x1="45.7556" x2="324.6126" y1="190.2576" y2="190.2576"/><text fill="#000000" font-family="sans-serif" font-size="9.3673" lengthAdjust="spacing" textLength="143.3916" x="54.4023" y="186.8405">Verify incorporation documents</text><polygon fill="#181818" points="50.079,208.4954,42.8734,211.3776,50.079,214.2598,47.1967,211.3776" style="stroke:#181818;stroke-width:0.7205606862840147;"/><line style="stroke:#181818;stroke-width:0.7205606862840147;" x1="45.7556" x2="324.6126" y1="211.3776" y2="211.3776"/><text fill="#000000" font-family="sans-serif" font-size="9.3673" lengthAdjust="spacing" textLength="160.685" x="54.4023" y="207.9606">Issue company registration number</text><rect fill="#EEEEEE" height="2.1617" style="stroke:#EEEEEE;stroke-width:0.7205606862840147;" width="662.1953" x="0" y="232.0255"/><line style="stroke:#000000;stroke-width:0.7205606862840147;" x1="0" x2="662.1953" y1="232.0255" y2="232.0255"/><line style="stroke:#000000;stroke-width:0.7205606862840147;" x1="0" x2="662.1953" y1="234.1871" y2="234.1871"/><rect fill="#EEEEEE" height="16.7967" style="stroke:#000000;stroke-width:1.4411213725680294;" width="92.9523" x="284.6215" y="224.3477"/><text fill="#000000" font-family="sans-serif" font-size="9.3673" font-weight="bold" lengthAdjust="spacing" textLength="79.9822" x="288.9448" y="236.2862">Tax Registration</text><polygon fill="#181818" points="50.079,260.8233,42.8734,263.7055,50.079,266.5878,47.1967,263.7055" style="stroke:#181818;stroke-width:0.7205606862840147;"/><line style="stroke:#181818;stroke-width:0.7205606862840147;" x1="45.7556" x2="433.057" y1="263.7055" y2="263.7055"/><text fill="#000000" font-family="sans-serif" font-size="9.3673" lengthAdjust="spacing" textLength="133.3037" x="54.4023" y="260.2885">Register for tax identification</text><polygon fill="#181818" points="50.079,281.9433,42.8734,284.8255,50.079,287.7078,47.1967,284.8255" style="stroke:#181818;stroke-width:0.7205606862840147;"/><line style="stroke:#181818;stroke-width:0.7205606862840147;" x1="45.7556" x2="433.057" y1="284.8255" y2="284.8255"/><text fill="#000000" font-family="sans-serif" font-size="9.3673" lengthAdjust="spacing" textLength="92.2318" x="54.4023" y="281.4085">Issue tax ID, VAT, ...</text><rect fill="#EEEEEE" height="2.1617" style="stroke:#EEEEEE;stroke-width:0.7205606862840147;" width="662.1953" x="0" y="305.4734"/><line style="stroke:#000000;stroke-width:0.7205606862840147;" x1="0" x2="662.1953" y1="305.4734" y2="305.4734"/><line style="stroke:#000000;stroke-width:0.7205606862840147;" x1="0" x2="662.1953" y1="307.6351" y2="307.6351"/><rect fill="#EEEEEE" height="16.7967" style="stroke:#000000;stroke-width:1.4411213725680294;" width="133.3037" x="264.4458" y="297.7956"/><text fill="#000000" font-family="sans-serif" font-size="9.3673" font-weight="bold" lengthAdjust="spacing" textLength="120.3336" x="268.7691" y="309.7341">Opening a Bank Account</text><polygon fill="#181818" points="488.1799,334.2712,495.3855,337.1534,488.1799,340.0357,491.0621,337.1534" style="stroke:#181818;stroke-width:0.7205606862840147;"/><line style="stroke:#181818;stroke-width:0.7205606862840147;" x1="42.1528" x2="492.5032" y1="337.1534" y2="337.1534"/><text fill="#000000" font-family="sans-serif" font-size="9.3673" lengthAdjust="spacing" textLength="163.5673" x="47.1967" y="333.7364">Request to open a business account</text><polygon fill="#181818" points="50.079,355.3912,42.8734,358.2735,50.079,361.1557,47.1967,358.2735" style="stroke:#181818;stroke-width:0.7205606862840147;"/><line style="stroke:#181818;stroke-width:0.7205606862840147;" x1="45.7556" x2="496.106" y1="358.2735" y2="358.2735"/><text fill="#000000" font-family="sans-serif" font-size="9.3673" lengthAdjust="spacing" textLength="116.0103" x="54.4023" y="354.8564">Verify KYC and AML creds</text><polygon fill="#181818" points="50.079,376.5113,42.8734,379.3935,50.079,382.2757,47.1967,379.3935" style="stroke:#181818;stroke-width:0.7205606862840147;"/><line style="stroke:#181818;stroke-width:0.7205606862840147;" x1="45.7556" x2="496.106" y1="379.3935" y2="379.3935"/><text fill="#000000" font-family="sans-serif" font-size="9.3673" lengthAdjust="spacing" textLength="125.3776" x="54.4023" y="375.9765">Issue bank account number</text><!--SRC=[TL9DJyCm3BtdLrWxmq08BeY1ok0mZGy98II4E6IfrrgiIKaSjFrxdAG22gA7DdAUttj-RZ1wWz3fBHoV74ABrBIib3RiF5JvhGDChYrxx3rQZFxbTQ9wxPaCzTeot3dMVfTXvJY-NduiyzsyrTqAFRWrp5tNeJSu1ZxgRHMvTPwui4a1lYfZxAMsRncJ3kEh6spqfge_A0pUSm66oa5bZ8kM1JbHQZQ3AyGwULfOutpll6Po5cOpDOorVrvYE8KdzBJU0TLecPWmWBOrR1Ax-5Cbh3F1byvJkDwYYPbE-Bb5g0Sj-gcbh6C4dtC7UOwsG254RGrUm6tSCEq7QYuKYbY29jCFs53WmQik6OlbzFdhTpHOxKpiP83m2xmGIGJZEibm1_udlurfRpcij96HjeYErlPDM62oxxMamj9NSbkJALF_qrPy9FpYQW-UgiSzc4wdMVo-Hqks0LssFomoMIZH2qcwIDBl4GC3Et3I8msh6CXYa8sL9fKP_aIrV9xddLQtDs0yrk4thhXRvPzla1_I-GG0]--></g></svg>