<?xml version="1.0" encoding="us-ascii" standalone="no"?><svg xmlns="http://www.w3.org/2000/svg" xmlns:xlink="http://www.w3.org/1999/xlink" contentStyleType="text/css" height="922px" preserveAspectRatio="none" style="width:1624px;height:922px;background:#FFFFFF;" version="1.1" viewBox="0 0 1624 922" width="1624px" zoomAndPan="magnify"><defs><filter height="1" id="b11oqwxk1p9el00" width="1" x="0" y="0"><feFlood flood-color="#ADD8E6" result="flood"/><feComposite in="SourceGraphic" in2="flood" operator="over"/></filter><filter height="1" id="b11oqwxk1p9el01" width="1" x="0" y="0"><feFlood flood-color="#FFFFFF" result="flood"/><feComposite in="SourceGraphic" in2="flood" operator="over"/></filter></defs><g><text fill="#000000" font-family="sans-serif" font-size="14" font-weight="bold" lengthAdjust="spacing" textLength="296" x="657.25" y="25.1074">High level functional components per role</text><rect fill="none" height="51.2422" id="_legend" rx="7.5" ry="7.5" style="stroke:#000000;stroke-width:1.0;" width="262" x="12" y="51.6211"/><text fill="#000000" font-family="sans-serif" font-size="14" lengthAdjust="spacing" textLength="48" x="17" y="71.7285">Legend</text><text fill="#ADD8E6" filter="url(#b11oqwxk1p9el00)" font-family="sans-serif" font-size="14" lengthAdjust="spacing" textLength="16" x="17" y="92.3496">##</text><text fill="#000000" font-family="sans-serif" font-size="14" lengthAdjust="spacing" textLength="197" x="37" y="92.3496">ARF required flows are listed in</text><text fill="#ADD8E6" filter="url(#b11oqwxk1p9el01)" font-family="sans-serif" font-size="14" lengthAdjust="spacing" textLength="27" x="238" y="92.3496">blue</text><text fill="#000000" font-family="sans-serif" font-size="14" lengthAdjust="spacing" textLength="4" x="265" y="92.3496">&#160;</text><line style="stroke:#000000;stroke-width:1.0;" x1="17" x2="269" y1="77.2422" y2="77.2422"/><line style="stroke:#000000;stroke-width:1.0;" x1="17" x2="269" y1="95.8633" y2="95.8633"/><line style="stroke:#000000;stroke-width:1.0;" x1="17" x2="17" y1="77.2422" y2="95.8633"/><line style="stroke:#000000;stroke-width:1.0;" x1="33" x2="33" y1="77.2422" y2="95.8633"/><line style="stroke:#000000;stroke-width:1.0;" x1="269" x2="269" y1="77.2422" y2="95.8633"/><!--cluster (Q)EAA Provider - Issuer--><g id="cluster_(Q)EAA Provider - Issuer"><path d="M8.5,232.9333 L179.5,232.9333 A3.75,3.75 0 0 1 182,235.4333 L189,257.5544 L532.5,257.5544 A2.5,2.5 0 0 1 535,260.0544 L535,866.4333 A2.5,2.5 0 0 1 532.5,868.9333 L8.5,868.9333 A2.5,2.5 0 0 1 6,866.4333 L6,235.4333 A2.5,2.5 0 0 1 8.5,232.9333 " fill="none" style="stroke:#000000;stroke-width:1.5;"/><line style="stroke:#000000;stroke-width:1.5;" x1="6" x2="189" y1="257.5544" y2="257.5544"/><text fill="#000000" font-family="sans-serif" font-size="14" font-weight="bold" lengthAdjust="spacing" textLength="170" x="10" y="250.0407">(Q)EAA Provider - Issuer</text></g><!--cluster Issuance API interfaces--><g id="cluster_Issuance API interfaces"><polygon fill="none" points="263,532.9333,273,522.9333,503,522.9333,503,826.9333,493,836.9333,263,836.9333,263,532.9333" style="stroke:#181818;stroke-width:1.0;"/><line style="stroke:#181818;stroke-width:1.0;" x1="493" x2="503" y1="532.9333" y2="522.9333"/><line style="stroke:#181818;stroke-width:1.0;" x1="263" x2="493" y1="532.9333" y2="532.9333"/><line style="stroke:#181818;stroke-width:1.0;" x1="493" x2="493" y1="532.9333" y2="836.9333"/><text fill="#000000" font-family="sans-serif" font-size="14" font-weight="bold" lengthAdjust="spacing" textLength="164" x="297" y="551.0407">Issuance API interfaces</text></g><!--cluster Wallet/Holder--><g id="cluster_Wallet/Holder"><path d="M644.5,241.9333 L739.5,241.9333 A3.75,3.75 0 0 1 742,244.4333 L749,266.5544 L1077.5,266.5544 A2.5,2.5 0 0 1 1080,269.0544 L1080,701.4333 A2.5,2.5 0 0 1 1077.5,703.9333 L644.5,703.9333 A2.5,2.5 0 0 1 642,701.4333 L642,244.4333 A2.5,2.5 0 0 1 644.5,241.9333 " fill="none" style="stroke:#000000;stroke-width:1.5;"/><line style="stroke:#000000;stroke-width:1.5;" x1="642" x2="749" y1="266.5544" y2="266.5544"/><text fill="#000000" font-family="sans-serif" font-size="14" font-weight="bold" lengthAdjust="spacing" textLength="94" x="646" y="259.0407">Wallet/Holder</text></g><!--cluster Wallet transport--><g id="cluster_Wallet transport"><polygon fill="none" points="682,532.9333,692,522.9333,1048,522.9333,1048,661.9333,1038,671.9333,682,671.9333,682,532.9333" style="stroke:#181818;stroke-width:1.0;"/><line style="stroke:#181818;stroke-width:1.0;" x1="1038" x2="1048" y1="532.9333" y2="522.9333"/><line style="stroke:#181818;stroke-width:1.0;" x1="682" x2="1038" y1="532.9333" y2="532.9333"/><line style="stroke:#181818;stroke-width:1.0;" x1="1038" x2="1038" y1="532.9333" y2="671.9333"/><text fill="#000000" font-family="sans-serif" font-size="14" font-weight="bold" lengthAdjust="spacing" textLength="112" x="805" y="551.0407">Wallet transport</text></g><!--cluster Relying Party--><g id="cluster_Relying Party"><path d="M1106.5,232.9333 L1198.5,232.9333 A3.75,3.75 0 0 1 1201,235.4333 L1208,257.5544 L1592.5,257.5544 A2.5,2.5 0 0 1 1595,260.0544 L1595,866.4333 A2.5,2.5 0 0 1 1592.5,868.9333 L1106.5,868.9333 A2.5,2.5 0 0 1 1104,866.4333 L1104,235.4333 A2.5,2.5 0 0 1 1106.5,232.9333 " fill="none" style="stroke:#000000;stroke-width:1.5;"/><line style="stroke:#000000;stroke-width:1.5;" x1="1104" x2="1208" y1="257.5544" y2="257.5544"/><text fill="#000000" font-family="sans-serif" font-size="14" font-weight="bold" lengthAdjust="spacing" textLength="91" x="1108" y="250.0407">Relying Party</text></g><!--cluster Relying Party API interfaces--><g id="cluster_Relying Party API interfaces"><polygon fill="none" points="1220,532.9333,1230,522.9333,1488,522.9333,1488,826.9333,1478,836.9333,1220,836.9333,1220,532.9333" style="stroke:#181818;stroke-width:1.0;"/><line style="stroke:#181818;stroke-width:1.0;" x1="1478" x2="1488" y1="532.9333" y2="522.9333"/><line style="stroke:#181818;stroke-width:1.0;" x1="1220" x2="1478" y1="532.9333" y2="532.9333"/><line style="stroke:#181818;stroke-width:1.0;" x1="1478" x2="1478" y1="532.9333" y2="836.9333"/><text fill="#000000" font-family="sans-serif" font-size="14" font-weight="bold" lengthAdjust="spacing" textLength="192" x="1254" y="551.0407">Relying Party API interfaces</text></g><!--entity (Q)EAA Provider Issuer--><g id="elem_(Q)EAA Provider Issuer"><rect fill="#F1F1F1" height="48.6211" rx="2.5" ry="2.5" style="stroke:#181818;stroke-width:0.5;" width="145" x="320.5" y="299.9333"/><rect fill="#F1F1F1" height="10" style="stroke:#181818;stroke-width:0.5;" width="15" x="445.5" y="304.9333"/><rect fill="#F1F1F1" height="2" style="stroke:#181818;stroke-width:0.5;" width="4" x="443.5" y="306.9333"/><rect fill="#F1F1F1" height="2" style="stroke:#181818;stroke-width:0.5;" width="4" x="443.5" y="310.9333"/><text fill="#000000" font-family="sans-serif" font-size="14" lengthAdjust="spacing" textLength="105" x="335.5" y="335.0407">(Q)EAA Provider</text></g><!--entity KMS & DID mgmt Issuer--><g id="elem_KMS &amp; DID mgmt Issuer"><rect fill="#F1F1F1" height="48.6211" rx="2.5" ry="2.5" style="stroke:#181818;stroke-width:0.5;" width="147" x="334.5" y="418.9333"/><rect fill="#F1F1F1" height="10" style="stroke:#181818;stroke-width:0.5;" width="15" x="461.5" y="423.9333"/><rect fill="#F1F1F1" height="2" style="stroke:#181818;stroke-width:0.5;" width="4" x="459.5" y="425.9333"/><rect fill="#F1F1F1" height="2" style="stroke:#181818;stroke-width:0.5;" width="4" x="459.5" y="429.9333"/><text fill="#000000" font-family="sans-serif" font-size="14" lengthAdjust="spacing" textLength="107" x="349.5" y="454.0407">KMS &amp; DID mgmt</text></g><!--entity Trust mgmt Issuer--><g id="elem_Trust mgmt Issuer"><rect fill="#F1F1F1" height="48.6211" rx="2.5" ry="2.5" style="stroke:#181818;stroke-width:0.5;" width="111" x="46.5" y="418.9333"/><rect fill="#F1F1F1" height="10" style="stroke:#181818;stroke-width:0.5;" width="15" x="137.5" y="423.9333"/><rect fill="#F1F1F1" height="2" style="stroke:#181818;stroke-width:0.5;" width="4" x="135.5" y="425.9333"/><rect fill="#F1F1F1" height="2" style="stroke:#181818;stroke-width:0.5;" width="4" x="135.5" y="429.9333"/><text fill="#000000" font-family="sans-serif" font-size="14" lengthAdjust="spacing" textLength="71" x="61.5" y="454.0407">Trust mgmt</text></g><!--entity Auth Issuer--><g id="elem_Auth Issuer"><rect fill="#F1F1F1" height="48.6211" rx="2.5" ry="2.5" style="stroke:#181818;stroke-width:0.5;" width="69" x="192.5" y="418.9333"/><rect fill="#F1F1F1" height="10" style="stroke:#181818;stroke-width:0.5;" width="15" x="241.5" y="423.9333"/><rect fill="#F1F1F1" height="2" style="stroke:#181818;stroke-width:0.5;" width="4" x="239.5" y="425.9333"/><rect fill="#F1F1F1" height="2" style="stroke:#181818;stroke-width:0.5;" width="4" x="239.5" y="429.9333"/><text fill="#000000" font-family="sans-serif" font-size="14" lengthAdjust="spacing" textLength="29" x="207.5" y="454.0407">Auth</text></g><!--entity Web app Issuer--><g id="elem_Web app Issuer"><rect fill="#F1F1F1" height="67.2422" rx="2.5" ry="2.5" style="stroke:#181818;stroke-width:0.5;" width="147" x="138.5" y="290.9333"/><rect fill="#F1F1F1" height="10" style="stroke:#181818;stroke-width:0.5;" width="15" x="265.5" y="295.9333"/><rect fill="#F1F1F1" height="2" style="stroke:#181818;stroke-width:0.5;" width="4" x="263.5" y="297.9333"/><rect fill="#F1F1F1" height="2" style="stroke:#181818;stroke-width:0.5;" width="4" x="263.5" y="301.9333"/><text fill="#000000" font-family="sans-serif" font-size="14" lengthAdjust="spacing" textLength="65" x="153.5" y="326.0407">Web app /</text><text fill="#000000" font-family="sans-serif" font-size="14" lengthAdjust="spacing" textLength="107" x="153.5" y="344.6618">Resource Server</text></g><!--entity Issuance API--><g id="elem_Issuance API"><ellipse cx="510" cy="324.4333" fill="#F1F1F1" rx="8" ry="8" style="stroke:#181818;stroke-width:0.5;"/><text fill="#000000" font-family="sans-serif" font-size="14" lengthAdjust="spacing" textLength="81" x="469.5" y="356.5407">Issuance API</text></g><!--entity Issuer DB--><g id="elem_Issuer DB"><path d="M22.5,310.4333 C22.5,300.4333 63,300.4333 63,300.4333 C63,300.4333 103.5,300.4333 103.5,310.4333 L103.5,338.0544 C103.5,348.0544 63,348.0544 63,348.0544 C63,348.0544 22.5,348.0544 22.5,338.0544 L22.5,310.4333 " fill="#F1F1F1" style="stroke:#181818;stroke-width:0.5;"/><path d="M22.5,310.4333 C22.5,320.4333 63,320.4333 63,320.4333 C63,320.4333 103.5,320.4333 103.5,310.4333 " fill="none" style="stroke:#181818;stroke-width:0.5;"/><text fill="#000000" font-family="sans-serif" font-size="14" lengthAdjust="spacing" textLength="61" x="32.5" y="339.5407">Issuer DB</text></g><!--entity OID4VCI Issuer--><g id="elem_OID4VCI Issuer"><rect fill="#ADD8E6" height="48.6211" rx="2.5" ry="2.5" style="stroke:#181818;stroke-width:0.5;" width="94" x="300" y="598.9333"/><rect fill="#ADD8E6" height="10" style="stroke:#181818;stroke-width:0.5;" width="15" x="374" y="603.9333"/><rect fill="#ADD8E6" height="2" style="stroke:#181818;stroke-width:0.5;" width="4" x="372" y="605.9333"/><rect fill="#ADD8E6" height="2" style="stroke:#181818;stroke-width:0.5;" width="4" x="372" y="609.9333"/><text fill="#000000" font-family="sans-serif" font-size="14" lengthAdjust="spacing" textLength="54" x="315" y="634.0407">OID4VCI</text></g><!--entity OID4VCI MGMT API--><g id="elem_OID4VCI MGMT API"><ellipse cx="438" cy="623.4333" fill="#F1F1F1" rx="8" ry="8" style="stroke:#181818;stroke-width:0.5;"/><text fill="#000000" font-family="sans-serif" font-size="14" lengthAdjust="spacing" textLength="125" x="375.5" y="655.5407">OID4VCI MGMT API</text></g><!--entity OID4VCI Wallet API--><g id="elem_OID4VCI Wallet API"><ellipse cx="373" cy="781.9333" fill="#F1F1F1" rx="8" ry="8" style="stroke:#181818;stroke-width:0.5;"/><text fill="#000000" font-family="sans-serif" font-size="14" lengthAdjust="spacing" textLength="122" x="312" y="814.0407">OID4VCI Wallet API</text></g><!--entity (Q)EAA mgmt Holder--><g id="elem_(Q)EAA mgmt Holder"><rect fill="#F1F1F1" height="48.6211" rx="2.5" ry="2.5" style="stroke:#181818;stroke-width:0.5;" width="126" x="885" y="299.9333"/><rect fill="#F1F1F1" height="10" style="stroke:#181818;stroke-width:0.5;" width="15" x="991" y="304.9333"/><rect fill="#F1F1F1" height="2" style="stroke:#181818;stroke-width:0.5;" width="4" x="989" y="306.9333"/><rect fill="#F1F1F1" height="2" style="stroke:#181818;stroke-width:0.5;" width="4" x="989" y="310.9333"/><text fill="#000000" font-family="sans-serif" font-size="14" lengthAdjust="spacing" textLength="86" x="900" y="335.0407">(Q)EAA mgmt</text></g><!--entity KMS & DID mgmt Holder--><g id="elem_KMS &amp; DID mgmt Holder"><rect fill="#F1F1F1" height="48.6211" rx="2.5" ry="2.5" style="stroke:#181818;stroke-width:0.5;" width="147" x="879.5" y="418.9333"/><rect fill="#F1F1F1" height="10" style="stroke:#181818;stroke-width:0.5;" width="15" x="1006.5" y="423.9333"/><rect fill="#F1F1F1" height="2" style="stroke:#181818;stroke-width:0.5;" width="4" x="1004.5" y="425.9333"/><rect fill="#F1F1F1" height="2" style="stroke:#181818;stroke-width:0.5;" width="4" x="1004.5" y="429.9333"/><text fill="#000000" font-family="sans-serif" font-size="14" lengthAdjust="spacing" textLength="107" x="894.5" y="454.0407">KMS &amp; DID mgmt</text></g><!--entity Trust mgmt Holder--><g id="elem_Trust mgmt Holder"><rect fill="#F1F1F1" height="48.6211" rx="2.5" ry="2.5" style="stroke:#181818;stroke-width:0.5;" width="111" x="658.5" y="418.9333"/><rect fill="#F1F1F1" height="10" style="stroke:#181818;stroke-width:0.5;" width="15" x="749.5" y="423.9333"/><rect fill="#F1F1F1" height="2" style="stroke:#181818;stroke-width:0.5;" width="4" x="747.5" y="425.9333"/><rect fill="#F1F1F1" height="2" style="stroke:#181818;stroke-width:0.5;" width="4" x="747.5" y="429.9333"/><text fill="#000000" font-family="sans-serif" font-size="14" lengthAdjust="spacing" textLength="71" x="673.5" y="454.0407">Trust mgmt</text></g><!--entity Q(E)AA api--><g id="elem_Q(E)AA api"><ellipse cx="1055" cy="324.4333" fill="#F1F1F1" rx="8" ry="8" style="stroke:#181818;stroke-width:0.5;"/><text fill="#000000" font-family="sans-serif" font-size="14" lengthAdjust="spacing" textLength="71" x="1019.5" y="356.5407">Q(E)AA api</text></g><!--entity Wallet DB--><g id="elem_Wallet DB"><path d="M713,310.4333 C713,300.4333 754,300.4333 754,300.4333 C754,300.4333 795,300.4333 795,310.4333 L795,338.0544 C795,348.0544 754,348.0544 754,348.0544 C754,348.0544 713,348.0544 713,338.0544 L713,310.4333 " fill="#F1F1F1" style="stroke:#181818;stroke-width:0.5;"/><path d="M713,310.4333 C713,320.4333 754,320.4333 754,320.4333 C754,320.4333 795,320.4333 795,310.4333 " fill="none" style="stroke:#181818;stroke-width:0.5;"/><text fill="#000000" font-family="sans-serif" font-size="14" lengthAdjust="spacing" textLength="62" x="723" y="339.5407">Wallet DB</text></g><!--entity OID4VP Client--><g id="elem_OID4VP Client"><rect fill="#ADD8E6" height="48.6211" rx="2.5" ry="2.5" style="stroke:#181818;stroke-width:0.5;" width="130" x="875" y="598.9333"/><rect fill="#ADD8E6" height="10" style="stroke:#181818;stroke-width:0.5;" width="15" x="985" y="603.9333"/><rect fill="#ADD8E6" height="2" style="stroke:#181818;stroke-width:0.5;" width="4" x="983" y="605.9333"/><rect fill="#ADD8E6" height="2" style="stroke:#181818;stroke-width:0.5;" width="4" x="983" y="609.9333"/><text fill="#000000" font-family="sans-serif" font-size="14" lengthAdjust="spacing" textLength="90" x="890" y="634.0407">OID4VP Client</text></g><!--entity OID4VCI Client--><g id="elem_OID4VCI Client"><rect fill="#ADD8E6" height="48.6211" rx="2.5" ry="2.5" style="stroke:#181818;stroke-width:0.5;" width="134" x="706" y="598.9333"/><rect fill="#ADD8E6" height="10" style="stroke:#181818;stroke-width:0.5;" width="15" x="820" y="603.9333"/><rect fill="#ADD8E6" height="2" style="stroke:#181818;stroke-width:0.5;" width="4" x="818" y="605.9333"/><rect fill="#ADD8E6" height="2" style="stroke:#181818;stroke-width:0.5;" width="4" x="818" y="609.9333"/><text fill="#000000" font-family="sans-serif" font-size="14" lengthAdjust="spacing" textLength="94" x="721" y="634.0407">OID4VCI Client</text></g><!--entity (Q)EAA mgmt RP--><g id="elem_(Q)EAA mgmt RP"><rect fill="#F1F1F1" height="48.6211" rx="2.5" ry="2.5" style="stroke:#181818;stroke-width:0.5;" width="126" x="1400" y="299.9333"/><rect fill="#F1F1F1" height="10" style="stroke:#181818;stroke-width:0.5;" width="15" x="1506" y="304.9333"/><rect fill="#F1F1F1" height="2" style="stroke:#181818;stroke-width:0.5;" width="4" x="1504" y="306.9333"/><rect fill="#F1F1F1" height="2" style="stroke:#181818;stroke-width:0.5;" width="4" x="1504" y="310.9333"/><text fill="#000000" font-family="sans-serif" font-size="14" lengthAdjust="spacing" textLength="86" x="1415" y="335.0407">(Q)EAA mgmt</text></g><!--entity KMS & DID mgmt RP--><g id="elem_KMS &amp; DID mgmt RP"><rect fill="#F1F1F1" height="48.6211" rx="2.5" ry="2.5" style="stroke:#181818;stroke-width:0.5;" width="147" x="1240.5" y="418.9333"/><rect fill="#F1F1F1" height="10" style="stroke:#181818;stroke-width:0.5;" width="15" x="1367.5" y="423.9333"/><rect fill="#F1F1F1" height="2" style="stroke:#181818;stroke-width:0.5;" width="4" x="1365.5" y="425.9333"/><rect fill="#F1F1F1" height="2" style="stroke:#181818;stroke-width:0.5;" width="4" x="1365.5" y="429.9333"/><text fill="#000000" font-family="sans-serif" font-size="14" lengthAdjust="spacing" textLength="107" x="1255.5" y="454.0407">KMS &amp; DID mgmt</text></g><!--entity Trust mgmt RP--><g id="elem_Trust mgmt RP"><rect fill="#F1F1F1" height="48.6211" rx="2.5" ry="2.5" style="stroke:#181818;stroke-width:0.5;" width="111" x="1422.5" y="418.9333"/><rect fill="#F1F1F1" height="10" style="stroke:#181818;stroke-width:0.5;" width="15" x="1513.5" y="423.9333"/><rect fill="#F1F1F1" height="2" style="stroke:#181818;stroke-width:0.5;" width="4" x="1511.5" y="425.9333"/><rect fill="#F1F1F1" height="2" style="stroke:#181818;stroke-width:0.5;" width="4" x="1511.5" y="429.9333"/><text fill="#000000" font-family="sans-serif" font-size="14" lengthAdjust="spacing" textLength="71" x="1437.5" y="454.0407">Trust mgmt</text></g><!--entity Web app RP--><g id="elem_Web app RP"><rect fill="#F1F1F1" height="67.2422" rx="2.5" ry="2.5" style="stroke:#181818;stroke-width:0.5;" width="147" x="1217.5" y="290.9333"/><rect fill="#F1F1F1" height="10" style="stroke:#181818;stroke-width:0.5;" width="15" x="1344.5" y="295.9333"/><rect fill="#F1F1F1" height="2" style="stroke:#181818;stroke-width:0.5;" width="4" x="1342.5" y="297.9333"/><rect fill="#F1F1F1" height="2" style="stroke:#181818;stroke-width:0.5;" width="4" x="1342.5" y="301.9333"/><text fill="#000000" font-family="sans-serif" font-size="14" lengthAdjust="spacing" textLength="65" x="1232.5" y="326.0407">Web app /</text><text fill="#000000" font-family="sans-serif" font-size="14" lengthAdjust="spacing" textLength="107" x="1232.5" y="344.6618">Resource Server</text></g><!--entity Verification API--><g id="elem_Verification API"><ellipse cx="1570" cy="324.4333" fill="#F1F1F1" rx="8" ry="8" style="stroke:#181818;stroke-width:0.5;"/><text fill="#000000" font-family="sans-serif" font-size="14" lengthAdjust="spacing" textLength="95" x="1522.5" y="356.5407">Verification API</text></g><!--entity RP DB--><g id="elem_RP DB"><path d="M1120,310.4333 C1120,300.4333 1151,300.4333 1151,300.4333 C1151,300.4333 1182,300.4333 1182,310.4333 L1182,338.0544 C1182,348.0544 1151,348.0544 1151,348.0544 C1151,348.0544 1120,348.0544 1120,338.0544 L1120,310.4333 " fill="#F1F1F1" style="stroke:#181818;stroke-width:0.5;"/><path d="M1120,310.4333 C1120,320.4333 1151,320.4333 1151,320.4333 C1151,320.4333 1182,320.4333 1182,310.4333 " fill="none" style="stroke:#181818;stroke-width:0.5;"/><text fill="#000000" font-family="sans-serif" font-size="14" lengthAdjust="spacing" textLength="42" x="1130" y="339.5407">RP DB</text></g><!--entity OID4VP RP--><g id="elem_OID4VP RP"><rect fill="#ADD8E6" height="48.6211" rx="2.5" ry="2.5" style="stroke:#181818;stroke-width:0.5;" width="90" x="1307" y="598.9333"/><rect fill="#ADD8E6" height="10" style="stroke:#181818;stroke-width:0.5;" width="15" x="1377" y="603.9333"/><rect fill="#ADD8E6" height="2" style="stroke:#181818;stroke-width:0.5;" width="4" x="1375" y="605.9333"/><rect fill="#ADD8E6" height="2" style="stroke:#181818;stroke-width:0.5;" width="4" x="1375" y="609.9333"/><text fill="#000000" font-family="sans-serif" font-size="14" lengthAdjust="spacing" textLength="50" x="1322" y="634.0407">OID4VP</text></g><!--entity OID4VP RP API--><g id="elem_OID4VP RP API"><ellipse cx="1273" cy="781.9333" fill="#F1F1F1" rx="8" ry="8" style="stroke:#181818;stroke-width:0.5;"/><text fill="#000000" font-family="sans-serif" font-size="14" lengthAdjust="spacing" textLength="98" x="1224" y="814.0407">OID4VP RP API</text></g><!--entity OID4VP MGMT API--><g id="elem_OID4VP MGMT API"><ellipse cx="1385" cy="781.9333" fill="#F1F1F1" rx="8" ry="8" style="stroke:#181818;stroke-width:0.5;"/><text fill="#000000" font-family="sans-serif" font-size="14" lengthAdjust="spacing" textLength="121" x="1324.5" y="814.0407">OID4VP MGMT API</text></g><!--link (Q)EAA Provider Issuer to Issuance API--><g id="link_(Q)EAA Provider Issuer_Issuance API"><path d="M465.67,324.4333 C477.44,324.4333 489.22,324.4333 501,324.4333 " fill="none" id="(Q)EAA Provider Issuer-Issuance API" style="stroke:#181818;stroke-width:1.0;"/></g><!--link (Q)EAA Provider Issuer to Trust mgmt Issuer--><g id="link_(Q)EAA Provider Issuer_Trust mgmt Issuer"><path d="M334.46,348.9733 C283.01,369.6533 214.2171,397.3157 163.5371,417.6857 " fill="none" id="(Q)EAA Provider Issuer-to-Trust mgmt Issuer" style="stroke:#181818;stroke-width:1.0;"/><polygon fill="#181818" points="157.97,419.9233,167.8125,420.2783,162.6093,418.0586,164.829,412.8554,157.97,419.9233" style="stroke:#181818;stroke-width:1.0;"/></g><!--link (Q)EAA Provider Issuer to Auth Issuer--><g id="link_(Q)EAA Provider Issuer_Auth Issuer"><path d="M349.89,349.0033 C330.73,360.0633 308.22,373.8833 289,387.9333 C276.16,397.3233 267.2295,404.777 256.2195,414.787 " fill="none" id="(Q)EAA Provider Issuer-to-Auth Issuer" style="stroke:#181818;stroke-width:1.0;"/><polygon fill="#181818" points="251.78,418.8233,261.13,415.7286,255.4795,415.4598,255.7484,409.8093,251.78,418.8233" style="stroke:#181818;stroke-width:1.0;"/></g><!--link (Q)EAA Provider Issuer to KMS & DID mgmt Issuer--><g id="link_(Q)EAA Provider Issuer_KMS &amp; DID mgmt Issuer"><path d="M396.04,349.1133 C398.64,369.4133 401.6074,392.5519 404.2074,412.8419 " fill="none" id="(Q)EAA Provider Issuer-to-KMS &amp; DID mgmt Issuer" style="stroke:#181818;stroke-width:1.0;"/><polygon fill="#181818" points="404.97,418.7933,407.7936,409.3579,404.3345,413.8338,399.8585,410.3747,404.97,418.7933" style="stroke:#181818;stroke-width:1.0;"/></g><!--link OID4VCI Issuer to OID4VCI MGMT API--><g id="link_OID4VCI Issuer_OID4VCI MGMT API"><path d="M394.28,623.4333 C405.78,623.4333 417.28,623.4333 428.78,623.4333 " fill="none" id="OID4VCI Issuer-OID4VCI MGMT API" style="stroke:#ADD8E6;stroke-width:1.0;"/></g><!--link OID4VCI Issuer to OID4VCI Wallet API--><g id="link_OID4VCI Issuer_OID4VCI Wallet API"><path d="M347.17,648.0333 C347.69,667.6933 349.28,696.3533 354,720.9333 C357.62,739.8233 365.25,761.0933 369.65,772.5533 " fill="none" id="OID4VCI Issuer-OID4VCI Wallet API" style="stroke:#ADD8E6;stroke-width:1.0;"/></g><!--link (Q)EAA Provider Issuer to OID4VCI MGMT API--><g id="link_(Q)EAA Provider Issuer_OID4VCI MGMT API"><path d="M364.62,348.9433 C333.23,377.8733 290.37,428.0633 317,467.9333 C342.12,505.5533 381.74,472.4433 411,506.9333 C438.31,539.1233 439.4162,587.8272 438.6762,608.3472 " fill="none" id="(Q)EAA Provider Issuer-to-OID4VCI MGMT API" style="stroke:#ADD8E6;stroke-width:1.0;"/><polygon fill="#ADD8E6" points="438.46,614.3433,442.7818,605.4933,438.6402,609.3465,434.7869,605.205,438.46,614.3433" style="stroke:#ADD8E6;stroke-width:1.0;"/></g><!--link (Q)EAA mgmt Holder to Q(E)AA api--><g id="link_(Q)EAA mgmt Holder_Q(E)AA api"><path d="M1011.11,324.4333 C1022.66,324.4333 1034.2,324.4333 1045.74,324.4333 " fill="none" id="(Q)EAA mgmt Holder-Q(E)AA api" style="stroke:#181818;stroke-width:1.0;"/></g><!--link (Q)EAA mgmt Holder to Trust mgmt Holder--><g id="link_(Q)EAA mgmt Holder_Trust mgmt Holder"><path d="M884.71,348.5533 C857.21,359.3733 824.96,373.1333 797,387.9333 C779.94,396.9633 766.8767,405.1422 751.9967,415.2922 " fill="none" id="(Q)EAA mgmt Holder-to-Trust mgmt Holder" style="stroke:#181818;stroke-width:1.0;"/><polygon fill="#181818" points="747.04,418.6733,756.729,416.9061,751.1705,415.8557,752.221,410.2973,747.04,418.6733" style="stroke:#181818;stroke-width:1.0;"/></g><!--link (Q)EAA mgmt Holder to KMS & DID mgmt Holder--><g id="link_(Q)EAA mgmt Holder_KMS &amp; DID mgmt Holder"><path d="M949.01,349.1133 C949.88,369.4133 950.863,392.5088 951.733,412.7988 " fill="none" id="(Q)EAA mgmt Holder-to-KMS &amp; DID mgmt Holder" style="stroke:#181818;stroke-width:1.0;"/><polygon fill="#181818" points="951.99,418.7933,955.6008,409.6302,951.7758,413.7979,947.6081,409.9729,951.99,418.7933" style="stroke:#181818;stroke-width:1.0;"/></g><!--reverse link Issuance API to (Q)EAA mgmt Holder--><g id="link_Issuance API_(Q)EAA mgmt Holder"><path d="M505.0935,309.5285 C497.0035,283.7485 480.29,215.9633 518.5,179.9333 C577.03,124.7433 620.48,164.8433 699.5,179.9333 C752.8,190.1133 765.54,198.6133 813,224.9333 C852.09,246.6033 892.84,278.0633 919.2,299.7733 " fill="none" id="Issuance API-backto-(Q)EAA mgmt Holder" style="stroke:#ADD8E6;stroke-width:1.0;stroke-dasharray:7.0,7.0;"/><polygon fill="#ADD8E6" points="506.89,315.2533,508.0118,305.4685,505.3929,310.4827,500.3788,307.8638,506.89,315.2533" style="stroke:#ADD8E6;stroke-width:1.0;"/><path d="M523.5,150.9333 L523.5,211.9333 L694.5,211.9333 L694.5,160.9333 L684.5,150.9333 L523.5,150.9333 " fill="#FEFFDD" style="stroke:#181818;stroke-width:0.5;"/><path d="M684.5,150.9333 L684.5,160.9333 L694.5,160.9333 L684.5,150.9333 " fill="#FEFFDD" style="stroke:#181818;stroke-width:0.5;"/><text fill="#000000" font-family="sans-serif" font-size="13" lengthAdjust="spacing" textLength="150" x="529.5" y="169.9616">Issuer issues one or more</text><text fill="#000000" font-family="sans-serif" font-size="13" lengthAdjust="spacing" textLength="124" x="529.5" y="187.2526">PIDs and/or (Q)EAAs</text><text fill="#000000" font-family="sans-serif" font-size="13" lengthAdjust="spacing" textLength="74" x="529.5" y="204.5436">to the Wallet</text><text fill="#000000" font-family="sans-serif" font-size="13" lengthAdjust="spacing" textLength="50" x="856.0863" y="288.8005">OID4VCI</text></g><!--link OID4VCI Client to OID4VCI Wallet API--><g id="link_OID4VCI Client_OID4VCI Wallet API"><path d="M712.68,648.0333 C614.25,686.5433 431.2478,758.1477 387.7078,775.1777 " fill="none" id="OID4VCI Client-to-OID4VCI Wallet API" style="stroke:#ADD8E6;stroke-width:1.0;"/><polygon fill="#ADD8E6" points="382.12,777.3633,391.9587,777.8101,386.7765,775.542,389.0446,770.3597,382.12,777.3633" style="stroke:#ADD8E6;stroke-width:1.0;"/></g><!--link (Q)EAA mgmt Holder to OID4VCI Client--><g id="link_(Q)EAA mgmt Holder_OID4VCI Client"><path d="M915.49,349.1233 C901.19,360.2133 884.6,374.0233 871,387.9333 C811.17,449.1533 786.8604,546.3588 778.0504,592.7088 " fill="none" id="(Q)EAA mgmt Holder-to-OID4VCI Client" style="stroke:#ADD8E6;stroke-width:1.0;"/><polygon fill="#ADD8E6" points="776.93,598.6033,782.5402,590.5085,777.8637,593.6912,774.6809,589.0147,776.93,598.6033" style="stroke:#ADD8E6;stroke-width:1.0;"/></g><!--link (Q)EAA mgmt Holder to OID4VP Client--><g id="link_(Q)EAA mgmt Holder_OID4VP Client"><path d="M916.64,349.0133 C896.84,365.9833 872.98,390.7833 862,418.9333 C836.64,483.9733 884.5634,556.3091 915.4234,594.2391 " fill="none" id="(Q)EAA mgmt Holder-to-OID4VP Client" style="stroke:#ADD8E6;stroke-width:1.0;"/><polygon fill="#ADD8E6" points="919.21,598.8933,916.6328,589.3876,916.0545,595.0148,910.4272,594.4365,919.21,598.8933" style="stroke:#ADD8E6;stroke-width:1.0;"/></g><!--link (Q)EAA mgmt RP to Trust mgmt RP--><g id="link_(Q)EAA mgmt RP_Trust mgmt RP"><path d="M1466.04,349.1133 C1468.64,369.4133 1471.6074,392.5519 1474.2074,412.8419 " fill="none" id="(Q)EAA mgmt RP-to-Trust mgmt RP" style="stroke:#181818;stroke-width:1.0;"/><polygon fill="#181818" points="1474.97,418.7933,1477.7936,409.3579,1474.3345,413.8338,1469.8585,410.3747,1474.97,418.7933" style="stroke:#181818;stroke-width:1.0;"/></g><!--link (Q)EAA mgmt RP to KMS & DID mgmt RP--><g id="link_(Q)EAA mgmt RP_KMS &amp; DID mgmt RP"><path d="M1432.85,349.1133 C1407,369.4133 1374.6691,394.7978 1348.8291,415.0878 " fill="none" id="(Q)EAA mgmt RP-to-KMS &amp; DID mgmt RP" style="stroke:#181818;stroke-width:1.0;"/><polygon fill="#181818" points="1344.11,418.7933,1353.6589,416.3811,1348.0425,415.7054,1348.7183,410.089,1344.11,418.7933" style="stroke:#181818;stroke-width:1.0;"/></g><!--link (Q)EAA mgmt RP to Verification API--><g id="link_(Q)EAA mgmt RP_Verification API"><path d="M1526.11,324.4333 C1537.66,324.4333 1549.2,324.4333 1560.74,324.4333 " fill="none" id="(Q)EAA mgmt RP-Verification API" style="stroke:#181818;stroke-width:1.0;"/></g><!--link (Q)EAA mgmt Holder to Verification API--><g id="link_(Q)EAA mgmt Holder_Verification API"><path d="M953.6,299.8533 C962.8,265.8933 984.71,205.8833 1029,179.9333 C1128.12,121.8633 1458.98,147.6733 1544,224.9333 C1570.3,248.8233 1571.6636,289.6982 1570.8636,309.3882 " fill="none" id="(Q)EAA mgmt Holder-to-Verification API" style="stroke:#ADD8E6;stroke-width:1.0;stroke-dasharray:7.0,7.0;"/><polygon fill="#ADD8E6" points="1570.62,315.3833,1574.9821,306.5531,1570.823,310.3874,1566.9887,306.2283,1570.62,315.3833" style="stroke:#ADD8E6;stroke-width:1.0;"/><path d="M1034,150.9333 L1034,211.9333 L1260,211.9333 L1260,160.9333 L1250,150.9333 L1034,150.9333 " fill="#FEFFDD" style="stroke:#181818;stroke-width:0.5;"/><path d="M1250,150.9333 L1250,160.9333 L1260,160.9333 L1250,150.9333 " fill="#FEFFDD" style="stroke:#181818;stroke-width:0.5;"/><text fill="#000000" font-family="sans-serif" font-size="13" lengthAdjust="spacing" textLength="205" x="1040" y="169.9616">Relying Party requests one or more</text><text fill="#000000" font-family="sans-serif" font-size="13" lengthAdjust="spacing" textLength="124" x="1040" y="187.2526">PIDs and/or (Q)EAAs</text><text fill="#000000" font-family="sans-serif" font-size="13" lengthAdjust="spacing" textLength="84" x="1040" y="204.5436">from the wallet</text><text fill="#000000" font-family="sans-serif" font-size="13" lengthAdjust="spacing" textLength="47" x="961.0569" y="288.4907">OID4VP</text></g><!--link OID4VP RP to OID4VP RP API--><g id="link_OID4VP RP_OID4VP RP API"><path d="M1340,648.2033 C1321.96,683.9433 1288.72,749.7933 1277.12,772.7733 " fill="none" id="OID4VP RP-OID4VP RP API" style="stroke:#ADD8E6;stroke-width:1.0;"/></g><!--link OID4VP RP to OID4VP MGMT API--><g id="link_OID4VP RP_OID4VP MGMT API"><path d="M1357.01,648.2033 C1364.55,683.9433 1378.43,749.7933 1383.28,772.7733 " fill="none" id="OID4VP RP-OID4VP MGMT API" style="stroke:#ADD8E6;stroke-width:1.0;"/></g><!--link OID4VP Client to OID4VP RP API--><g id="link_OID4VP Client_OID4VP RP API"><path d="M952.73,648.0533 C964.68,668.0033 984.39,695.8333 1009,711.9333 C1096.21,768.9933 1222.5066,778.6612 1257.9866,780.3312 " fill="none" id="OID4VP Client-to-OID4VP RP API" style="stroke:#ADD8E6;stroke-width:1.0;"/><polygon fill="#ADD8E6" points="1263.98,780.6133,1255.178,776.1946,1258.9855,780.3782,1254.8019,784.1857,1263.98,780.6133" style="stroke:#ADD8E6;stroke-width:1.0;"/></g><!--link (Q)EAA mgmt RP to OID4VP MGMT API--><g id="link_(Q)EAA mgmt RP_OID4VP MGMT API"><path d="M1404.64,348.9733 C1397.03,352.0033 1389.33,355.0533 1382,357.9333 C1311.54,385.5833 1269.67,359.3433 1223,418.9333 C1182.76,470.3133 1179,663.2533 1212,711.9333 C1216.99,719.2933 1335.5332,762.9074 1370.3532,775.6074 " fill="none" id="(Q)EAA mgmt RP-to-OID4VP MGMT API" style="stroke:#ADD8E6;stroke-width:1.0;"/><polygon fill="#ADD8E6" points="1375.99,777.6633,1368.9055,770.8216,1371.2927,775.95,1366.1642,778.3373,1375.99,777.6633" style="stroke:#ADD8E6;stroke-width:1.0;"/></g><!--link Issuance API to Issuance API interfaces--><g id="link_Issuance API_Issuance API interfaces"><path d="M509.58,333.6833 C508.38,357.4833 504.7825,428.7333 501.4613,494.497 C501.0461,502.7175 500.6353,510.8522 500.234,518.7979 C500.1838,519.7911 500.4364,514.789 500.3866,515.7761 " fill="none" id="Issuance API-to-Issuance API interfaces" style="stroke:#181818;stroke-width:1.0;stroke-dasharray:7.0,7.0;"/><polygon fill="#181818" points="500.0839,521.7684,504.5328,512.9816,500.3361,516.7748,496.543,512.5781,500.0839,521.7684" style="stroke:#181818;stroke-width:1.0;"/></g><!--link Q(E)AA api to Wallet transport--><g id="link_Q(E)AA api_Wallet transport"><path d="M1054.58,333.6833 C1053.38,357.4833 1049.7825,428.7333 1046.4612,494.497 C1046.0461,502.7175 1045.6353,510.8522 1045.234,518.7979 C1045.1838,519.7911 1045.4364,514.789 1045.3866,515.7761 " fill="none" id="Q(E)AA api-to-Wallet transport" style="stroke:#181818;stroke-width:1.0;stroke-dasharray:7.0,7.0;"/><polygon fill="#181818" points="1045.0839,521.7684,1049.5328,512.9816,1045.3361,516.7748,1041.543,512.5781,1045.0839,521.7684" style="stroke:#181818;stroke-width:1.0;"/></g><!--link Verification API to Relying Party API interfaces--><g id="link_Verification API_Relying Party API interfaces"><path d="M1571.9,333.6533 C1577.03,358.0633 1588.32,430.7833 1551,467.9333 C1454.77,563.7233 1341.14,408.1433 1248,506.9333 C1245.8288,509.237 1244.0708,512.7225 1242.6572,517.064 C1242.3039,518.1494 1241.972,519.2883 1241.6606,520.4755 C1241.5049,521.0692 1241.3543,521.6749 1241.2087,522.2922 C1241.1723,522.4465 1242.4799,516.7539 1242.4441,516.9096 " fill="none" id="Verification API-to-Relying Party API interfaces" style="stroke:#181818;stroke-width:1.0;stroke-dasharray:7.0,7.0;"/><polygon fill="#181818" points="1241.1004,522.7572,1247.0143,514.8816,1242.2201,517.8842,1239.2175,513.09,1241.1004,522.7572" style="stroke:#181818;stroke-width:1.0;"/></g><text fill="#000000" font-family="sans-serif" font-size="14" lengthAdjust="spacing" textLength="598" x="506.25" y="891.0407">These are high level functional components for the issuer, holder/wallet and relying party roles.</text><text fill="#000000" font-family="sans-serif" font-size="14" lengthAdjust="spacing" textLength="394" x="608.25" y="909.6618">Given these are roles a single system could fulfill multiple roles</text><!--SRC=[bLPBRnen4BxxLuo8r8TKuD9J5I7Hq0Tgesv9r1xQ70mxW1MllRMzYQ8c_xrZxmBU5w58eDsPRnuUVpF3owrpkNqt7kUIArTaShJIsPY-kLQet30LV6DunfYz5Ihdz0WIDwZIztnrkp6wKEc5bjh0sVrME6p1Fcg3DTXIaY5ZJZY9y5bijWIyGmdhGgsSq8fBs4UtaAC1eoMo5S-z5gwtQ16uGTW-PxkcS6wB8AmjqBo1hPOfcl4zbn8TS9M2GVaWr0OeOVSGujZHR_L9tA7obbMW80SEbg2Kitsm3ZCALCYK8ikra1AoGZgHomhCohE3qpbbk7RiQtXdZ-TBElmxIPcxfInmShxoHOa4PsVdOu-PFC9qyP4I_5C8WnH7wdiRif62mgSW59JEGjdRZlnFvGeUcK-cp8cnd6HyWp1uzVtrX-aK4gFl11K6XZ0FbHh0NmRmgw6-0MvRmihYnkE_N5x12vZDPv1jCbV2wx8OVMqAwoBauJr6JGktBVN-ATRyn2NmF8VnRxL0gmkpGhX2SxTBTAUFJ7foftCF_2DNv6AQp0T7iSD9Nwv7JPhf7mNtL8tiKkxuaXCl1wKGPk_BstfYZ2cTOlqen1A7PirNQ4iOHVusdxtzSJ4lgrIzxCEVxGbK0n_ICxyEa1igt0vm-UdoUbUyBhkqn-vdsOm7ozx2r3rCka8_CL-6YE6bz_7dqFXrMX-O5mcWH9vAvmXzXCuHgYEKPz_tLnzUavZdOj2BQl3kEQSTD7h6P5VF0OnaNEhHfDqUIZiCWmre8akXRiFTbP-Ac67eMj8Zq1ZEQ0j4c6G-itu0ZqbLvc8ZhTDXR9UNHt8_l7p46lyhuX3_MKWeFSYSuShcshYAyoKR4xYGWlP2a-Hxhfwe7lRni47bxdjf63Uz_wTX4jaHzPzgv5zKootno-qKyY-IKubV8O-GlaASEgKhU2ER5kkFmRfJR45Xy0EDM8iL3tydgjiwy6gH14uTRPA4UiGqUwJBRUWJus4TZG9Gkw6mwz6wlfvvhci0raPdeNFkMvspRv5woEuLiU-OQ4SaeNgDzG0rvR1hn7lLORgVP51V9UtsRUoWIK-aZhlliOi3xhg8rMSUZD9HSn36bMFn3D-1M-E8jKcomnwz5_OF]--></g></svg>
